<svg width="1186" height="816" viewBox="0 0 1186 816" fill="none" xmlns="http://www.w3.org/2000/svg">
<path d="M1165.49 793.137C1135.01 827.215 415.564 811.341 295.551 812.823C-10.3021 624.443 -35.0663 331.924 28.2213 170.637C56.7953 97.825 137.862 20.3556 234.591 4.05847C353.334 -16.0505 457.896 67.981 505.309 106.292C651.78 224.4 650.721 347.376 732.423 354.148C822.169 361.558 853.071 202.386 981.763 194.131C1061.35 189.052 1118.07 244.93 1125.06 251.915C1191.52 319.437 1198.72 433.522 1154.48 499.773C1111.09 564.753 1026 572.162 1029.17 597.139C1031.93 620.843 1121.25 605.604 1163.58 659.579C1191.73 696.195 1194.48 760.965 1165.49 793.137Z" fill="url(#paint0_linear)"/>
<defs>
<linearGradient id="paint0_linear" x1="593" y1="0.994995" x2="593" y2="815.247" gradientUnits="userSpaceOnUse">
<stop stop-color="#FF6775"/>
<stop offset="0.879334" stop-color="#F46D5D" stop-opacity="0"/>
</linearGradient>
</defs>
</svg>
