<svg width="1186" height="815" viewBox="0 0 1186 815" fill="none" xmlns="http://www.w3.org/2000/svg">
<g style="mix-blend-mode:darken" opacity="0.6">
<path d="M1165.49 22.1104C1135.01 -11.9681 415.564 3.90631 295.551 2.42401C-10.3021 190.804 -35.0663 483.323 28.2213 644.61C56.7953 717.422 137.862 794.892 234.591 811.189C353.334 831.298 457.896 747.266 505.309 708.955C651.78 590.847 650.721 467.871 732.423 461.099C822.169 453.69 853.071 612.861 981.763 621.116C1061.35 626.196 1118.07 570.317 1125.06 563.333C1191.52 495.811 1198.72 381.725 1154.48 315.475C1111.09 250.494 1026 243.085 1029.17 218.109C1031.93 194.404 1121.25 209.643 1163.58 155.668C1191.73 119.052 1194.48 54.282 1165.49 22.1104Z" fill="url(#paint0_linear)"/>
</g>
<defs>
<linearGradient id="paint0_linear" x1="581" y1="603.995" x2="593" y2="60.0002" gradientUnits="userSpaceOnUse">
<stop stop-color="#FF6044"/>
<stop offset="0.497627" stop-color="#F08891"/>
<stop offset="0.954264" stop-color="#F08993" stop-opacity="0"/>
</linearGradient>
</defs>
</svg>
