<svg width="390" height="423" viewBox="0 0 390 423" fill="none" xmlns="http://www.w3.org/2000/svg">
<path d="M148.047 140.515C148.047 140.515 136.652 159.638 134.206 155.345C132.629 152.577 134.05 147.606 134.05 147.606C134.05 147.606 119.937 162.278 117.142 159.146C114.346 156.015 113.127 142.071 117.326 138.686C121.442 135.367 135.353 124.758 139.422 127.098C143.491 129.437 148.047 140.515 148.047 140.515Z" fill="#F2DEB8"/>
<path fill-rule="evenodd" clip-rule="evenodd" d="M121.777 141.504C121.884 141.665 121.84 141.882 121.68 141.989L121.486 141.698L121.292 141.407C121.453 141.3 121.67 141.344 121.777 141.504ZM114.404 146.825C114.196 146.961 114.043 147.062 114.008 147.081C113.838 147.174 113.626 147.112 113.534 146.943C113.441 146.773 113.503 146.561 113.672 146.468C113.67 146.47 113.673 146.468 113.685 146.46C113.698 146.452 113.722 146.436 113.761 146.411C113.823 146.371 113.911 146.314 114.02 146.241C114.239 146.097 114.544 145.895 114.906 145.655C115.629 145.176 116.581 144.544 117.526 143.915C118.473 143.285 119.414 142.658 120.119 142.189L121.292 141.407L121.486 141.698L121.68 141.989L120.506 142.77C119.801 143.24 118.86 143.867 117.913 144.496C116.967 145.125 116.016 145.757 115.291 146.238C114.93 146.478 114.624 146.68 114.404 146.825Z" fill="#414042"/>
<path fill-rule="evenodd" clip-rule="evenodd" d="M122.292 145.047C122.453 144.941 122.67 144.985 122.776 145.145C122.883 145.305 122.839 145.522 122.679 145.629L122.487 145.342C122.679 145.629 122.679 145.629 122.679 145.629L121.22 146.598C120.345 147.18 119.175 147.957 118.001 148.737C116.827 149.517 115.648 150.299 114.753 150.891C114.306 151.188 113.929 151.436 113.66 151.614C113.525 151.703 113.416 151.774 113.339 151.824C113.272 151.868 113.21 151.909 113.184 151.922C113.015 152.015 112.803 151.953 112.711 151.784C112.618 151.615 112.68 151.402 112.849 151.31C112.846 151.312 112.851 151.308 112.867 151.298C112.884 151.287 112.913 151.269 112.958 151.239C113.033 151.19 113.141 151.119 113.275 151.031C113.544 150.854 113.921 150.605 114.368 150.309C115.262 149.716 116.441 148.935 117.615 148.155C118.789 147.375 119.958 146.599 120.834 146.017L122.292 145.047C122.292 145.047 122.292 145.047 122.484 145.336L122.292 145.047Z" fill="#414042"/>
<path fill-rule="evenodd" clip-rule="evenodd" d="M123.292 148.689C123.453 148.582 123.67 148.626 123.776 148.787C123.883 148.947 123.839 149.164 123.679 149.271L123.486 148.98C123.679 149.271 123.679 149.27 123.679 149.271L122.22 150.24C121.345 150.822 120.175 151.599 119.001 152.379C117.827 153.158 116.648 153.94 115.753 154.533C115.306 154.829 114.929 155.078 114.66 155.256C114.525 155.345 114.416 155.416 114.339 155.466C114.272 155.51 114.21 155.551 114.184 155.564C114.015 155.657 113.803 155.595 113.711 155.426C113.618 155.256 113.68 155.044 113.849 154.951C113.846 154.953 113.851 154.95 113.867 154.94C113.884 154.929 113.913 154.91 113.958 154.881C114.033 154.831 114.141 154.761 114.275 154.672C114.544 154.495 114.921 154.247 115.368 153.95C116.262 153.358 117.441 152.576 118.615 151.797C119.789 151.017 120.958 150.241 121.834 149.658L123.292 148.689C123.292 148.689 123.292 148.689 123.463 148.946L123.292 148.689Z" fill="#414042"/>
<path d="M266.197 102.233C265.784 104.103 264.384 108.933 262.935 109.749C261.486 110.565 261.455 109.003 260.398 109.02" fill="#414042"/>
<path d="M238.216 93.4453C234.647 98.9219 227.391 105.227 223.65 111.377C219.908 117.527 228.518 127.361 238.616 126.439C242.263 126.107 245.261 119.725 247.095 115.765" fill="#F2DEB8"/>
<path fill-rule="evenodd" clip-rule="evenodd" d="M238.408 93.1524C238.569 93.2577 238.615 93.474 238.509 93.6356C236.832 96.2096 234.353 98.9591 231.826 101.762C231.637 101.971 231.447 102.182 231.258 102.392C228.526 105.425 225.8 108.516 223.948 111.558L223.65 111.376L223.948 111.558C222.197 114.436 223.299 118.258 226.198 121.319C229.081 124.365 233.657 126.541 238.585 126.091C239.399 126.017 240.204 125.602 240.995 124.923C241.785 124.244 242.539 123.319 243.246 122.267C244.663 120.162 245.86 117.601 246.778 115.618C246.859 115.443 247.067 115.366 247.242 115.447C247.417 115.529 247.493 115.736 247.412 115.911C246.497 117.888 245.278 120.499 243.826 122.657C243.099 123.737 242.305 124.717 241.45 125.453C240.596 126.187 239.658 126.695 238.649 126.787C233.479 127.258 228.701 124.979 225.69 121.8C222.695 118.637 221.362 114.467 223.352 111.195C225.242 108.088 228.014 104.95 230.739 101.925C230.925 101.718 231.11 101.512 231.295 101.307C233.835 98.4898 236.278 95.7801 237.924 93.2543C238.03 93.0927 238.246 93.0471 238.408 93.1524Z" fill="#414042"/>
<path d="M245.956 115.093C247.253 115.755 250.493 118.246 252.319 117.674C258.06 115.877 265.197 104.815 268.163 99.2435C269.406 96.9074 269.46 95.495 270.509 93.3497L254.422 83.4129L246.535 80.273L242.416 79.5903L242.567 85.9576L240.467 87.192L239.264 89.8121L238.478 92.2763" fill="#F2DEB8"/>
<path fill-rule="evenodd" clip-rule="evenodd" d="M242.057 79.1772L246.63 79.935L254.579 83.1001L270.963 93.2193L270.823 93.5035C270.352 94.4675 270.087 95.2777 269.812 96.1164C269.789 96.1889 269.765 96.2615 269.741 96.3345C269.439 97.2539 269.107 98.2134 268.471 99.408C266.981 102.207 264.445 106.383 261.558 110.089C260.114 111.942 258.577 113.684 257.034 115.079C255.496 116.47 253.928 117.537 252.423 118.008C251.874 118.179 251.252 118.113 250.643 117.941C250.028 117.769 249.386 117.477 248.777 117.155C248.165 116.832 247.573 116.471 247.057 116.153C247.002 116.119 246.948 116.086 246.895 116.053C246.446 115.775 246.073 115.545 245.798 115.404C245.626 115.317 245.557 115.106 245.645 114.934C245.733 114.763 245.943 114.694 246.115 114.782C246.418 114.937 246.817 115.184 247.258 115.456C247.313 115.49 247.368 115.524 247.424 115.559C247.939 115.876 248.514 116.226 249.103 116.537C249.693 116.849 250.285 117.115 250.832 117.269C251.384 117.424 251.852 117.455 252.214 117.341C253.58 116.914 255.058 115.924 256.566 114.561C258.068 113.202 259.578 111.493 261.006 109.66C263.864 105.992 266.379 101.852 267.855 99.0798C268.462 97.9384 268.779 97.0237 269.078 96.1164C269.102 96.0428 269.126 95.9692 269.15 95.8954C269.397 95.1389 269.649 94.3692 270.06 93.4826L254.264 83.7265L246.442 80.6118L242.776 80.0042L242.921 86.155L240.74 87.4378L239.591 89.9389L238.811 92.3829C238.752 92.5666 238.556 92.668 238.372 92.6094C238.188 92.5508 238.087 92.3543 238.146 92.1705L238.938 89.6861L240.196 86.9469L242.213 85.7611L242.057 79.1772Z" fill="#414042"/>
<path d="M252.564 111.318C252.564 111.496 252.696 111.637 252.875 111.641C253.054 111.644 253.186 111.507 253.186 111.329C253.186 111.152 253.054 111.01 252.875 111.007C252.696 111.004 252.564 111.141 252.564 111.318Z" fill="#231F20"/>
<path d="M252.898 111.008C252.891 111.008 252.883 111.007 252.875 111.007C252.696 111.004 252.564 111.14 252.564 111.318C252.564 111.488 252.685 111.625 252.852 111.639C252.86 111.64 252.867 111.64 252.875 111.641C253.054 111.644 253.186 111.507 253.186 111.329C253.186 111.16 253.065 111.023 252.898 111.008Z" fill="#414042"/>
<path d="M254.335 113.083C254.336 113.261 254.471 113.4 254.649 113.403C254.827 113.406 254.961 113.269 254.96 113.091C254.959 112.914 254.825 112.774 254.647 112.772C254.468 112.769 254.335 112.905 254.335 113.083Z" fill="#231F20"/>
<path d="M254.672 112.771C254.664 112.77 254.655 112.77 254.646 112.77C254.468 112.768 254.335 112.903 254.335 113.081C254.336 113.252 254.459 113.385 254.625 113.4C254.633 113.401 254.641 113.401 254.649 113.402C254.827 113.405 254.961 113.268 254.96 113.09C254.959 112.921 254.838 112.786 254.672 112.771Z" fill="#414042"/>
<path d="M255.734 114.053C255.734 114.231 255.869 114.37 256.047 114.373C256.226 114.376 256.36 114.239 256.358 114.062C256.357 113.884 256.224 113.744 256.045 113.742C255.866 113.739 255.733 113.875 255.734 114.053Z" fill="#231F20"/>
<path d="M256.07 113.743C256.062 113.742 256.053 113.742 256.045 113.742C255.866 113.739 255.733 113.875 255.734 114.053C255.734 114.223 255.857 114.357 256.023 114.372C256.031 114.372 256.039 114.373 256.047 114.373C256.226 114.376 256.36 114.239 256.358 114.062C256.358 113.892 256.236 113.757 256.07 113.743Z" fill="#414042"/>
<path d="M252.864 115.367C252.865 115.544 253 115.684 253.178 115.687C253.357 115.689 253.49 115.553 253.489 115.375C253.488 115.197 253.354 115.057 253.175 115.055C252.997 115.053 252.864 115.188 252.864 115.367Z" fill="#231F20"/>
<path d="M253.201 115.053C253.192 115.053 253.184 115.052 253.175 115.052C252.997 115.05 252.864 115.186 252.864 115.364C252.865 115.533 252.987 115.668 253.153 115.682C253.162 115.683 253.17 115.684 253.178 115.683C253.357 115.686 253.49 115.55 253.489 115.372C253.488 115.203 253.367 115.068 253.201 115.053Z" fill="#414042"/>
<path d="M259.999 106.864C260 107.042 260.136 107.18 260.314 107.183C260.492 107.187 260.627 107.052 260.626 106.874C260.626 106.696 260.49 106.558 260.311 106.555C260.133 106.552 259.999 106.687 259.999 106.864Z" fill="#231F20"/>
<path d="M260.336 106.558C260.328 106.558 260.32 106.557 260.311 106.557C260.133 106.554 259.999 106.688 259.999 106.866C260 107.036 260.124 107.169 260.29 107.184C260.298 107.185 260.306 107.185 260.314 107.185C260.492 107.188 260.627 107.054 260.626 106.875C260.625 106.706 260.502 106.573 260.336 106.558Z" fill="#414042"/>
<path d="M252.863 108.164C252.864 108.342 253 108.481 253.178 108.484C253.356 108.486 253.492 108.352 253.49 108.174C253.489 107.996 253.353 107.857 253.175 107.855C252.996 107.853 252.862 107.986 252.863 108.164Z" fill="#231F20"/>
<path d="M253.2 107.858C253.192 107.857 253.183 107.857 253.175 107.857C252.996 107.855 252.862 107.988 252.863 108.166C252.863 108.336 252.988 108.47 253.154 108.484C253.162 108.485 253.17 108.486 253.178 108.486C253.356 108.488 253.492 108.354 253.49 108.176C253.489 108.007 253.366 107.873 253.2 107.858Z" fill="#414042"/>
<path d="M258.524 108.98C258.525 109.158 258.659 109.298 258.838 109.3C259.017 109.301 259.15 109.163 259.149 108.985C259.148 108.807 259.015 108.667 258.835 108.666C258.656 108.664 258.524 108.802 258.524 108.98Z" fill="#231F20"/>
<path d="M258.863 108.667C258.854 108.666 258.845 108.666 258.835 108.665C258.656 108.664 258.524 108.802 258.524 108.98C258.525 109.148 258.645 109.284 258.811 109.298C258.82 109.299 258.829 109.299 258.838 109.299C259.017 109.301 259.15 109.163 259.149 108.985C259.148 108.816 259.028 108.681 258.863 108.667Z" fill="#414042"/>
<path d="M255.929 106.829C255.93 107.006 256.065 107.146 256.243 107.147C256.421 107.149 256.555 107.012 256.553 106.835C256.552 106.657 256.418 106.518 256.239 106.516C256.06 106.514 255.928 106.651 255.929 106.829Z" fill="#231F20"/>
<path d="M256.266 106.517C256.257 106.516 256.248 106.516 256.239 106.516C256.06 106.514 255.928 106.651 255.929 106.829C255.93 106.998 256.052 107.132 256.217 107.146C256.226 107.147 256.234 107.147 256.243 107.147C256.421 107.149 256.555 107.012 256.553 106.835C256.552 106.666 256.431 106.532 256.266 106.517Z" fill="#414042"/>
<path d="M255.392 109.341C255.392 109.52 255.528 109.66 255.707 109.663C255.884 109.666 256.019 109.531 256.018 109.353C256.017 109.174 255.883 109.035 255.704 109.032C255.525 109.028 255.392 109.163 255.392 109.341Z" fill="#231F20"/>
<path d="M255.728 109.029C255.72 109.028 255.712 109.028 255.704 109.028C255.525 109.024 255.392 109.159 255.392 109.337C255.393 109.508 255.516 109.643 255.683 109.658C255.691 109.658 255.699 109.658 255.707 109.659C255.884 109.662 256.019 109.527 256.018 109.349C256.017 109.179 255.895 109.044 255.728 109.029Z" fill="#414042"/>
<path d="M256.728 111.08C256.728 111.258 256.862 111.398 257.041 111.4C257.22 111.401 257.353 111.263 257.352 111.085C257.351 110.907 257.218 110.766 257.039 110.765C256.859 110.764 256.727 110.901 256.728 111.08Z" fill="#231F20"/>
<path d="M257.066 110.768C257.057 110.768 257.048 110.767 257.039 110.767C256.859 110.766 256.727 110.904 256.727 111.082C256.728 111.251 256.848 111.386 257.014 111.4C257.023 111.401 257.032 111.402 257.041 111.402C257.22 111.403 257.353 111.265 257.352 111.087C257.351 110.918 257.231 110.783 257.066 110.768Z" fill="#414042"/>
<path d="M257.333 112.455C257.334 112.633 257.467 112.773 257.646 112.775C257.825 112.776 257.958 112.638 257.958 112.46C257.957 112.281 257.823 112.141 257.644 112.14C257.464 112.139 257.332 112.276 257.333 112.455Z" fill="#231F20"/>
<path d="M257.671 112.141C257.662 112.141 257.653 112.14 257.644 112.14C257.464 112.139 257.332 112.276 257.333 112.455C257.333 112.624 257.454 112.759 257.62 112.773C257.628 112.774 257.637 112.774 257.646 112.775C257.825 112.776 257.958 112.638 257.958 112.46C257.957 112.291 257.837 112.156 257.671 112.141Z" fill="#414042"/>
<path d="M251.208 113.972C251.209 114.15 251.345 114.287 251.523 114.289C251.7 114.292 251.836 114.158 251.835 113.98C251.834 113.802 251.699 113.665 251.521 113.663C251.342 113.661 251.208 113.793 251.208 113.972Z" fill="#231F20"/>
<path d="M251.546 113.664C251.538 113.663 251.529 113.662 251.521 113.663C251.342 113.661 251.208 113.793 251.208 113.972C251.209 114.141 251.333 114.274 251.498 114.288C251.506 114.289 251.514 114.289 251.523 114.289C251.7 114.292 251.836 114.158 251.835 113.98C251.834 113.811 251.711 113.678 251.546 113.664Z" fill="#414042"/>
<path d="M282.675 89.9764C279.837 92.5421 279.987 91.3841 277.689 93.1917C277.048 96.1129 275.896 98.3616 272.721 97.9365C271.143 97.8876 269.816 97.5899 268.237 97.5441C266.979 98.7454 264.651 100.783 263.353 101.861C262.748 102.364 262.223 100.855 262.244 100.282C262.318 98.233 262.821 92.9998 262.928 91.7724C263.035 90.5449 262.947 91.4253 262.936 91.3689C262.598 89.7251 258.868 88.0446 258.02 87.6694C253.871 85.8337 248.927 84.2608 246.165 80.9785C245.92 80.6868 246.053 80.6461 245.971 80.5783C245.358 80.0756 244.979 79.3302 244.074 80.3236C243.169 81.3171 241.827 83.6159 240.833 84.8587C240.727 85.7285 235.659 91.0753 235.742 90.7672C235.914 87.779 242.644 68.4043 245.165 69.0279C247.686 69.6512 249.972 71.5426 250.657 70.4854C253.762 65.689 257.541 66.1009 262.121 67.9776C262.735 68.2294 263.784 68.9109 264.657 69.2417C270.304 71.3808 278.087 74.3362 284.048 71.7422C283.055 74.0841 282.05 76.4252 281.057 78.7616C284.972 79.0023 287.974 76.94 290.961 74.8501C289.45 79.3033 285.512 87.4108 282.675 89.9764Z" fill="#414042"/>
<path d="M260.478 103.534C260.524 104.15 258.61 104.733 258.066 104.593C254.024 103.552 256.628 96.8862 260.091 96.8546C262.943 96.8287 263.541 99.1621 261.925 100.907C261.853 100.985 261.773 101.049 261.711 101.135" fill="#F2DEB8"/>
<path fill-rule="evenodd" clip-rule="evenodd" d="M262.356 98.3412C262.121 97.7229 261.426 97.1918 260.093 97.2039L260.09 96.8547L260.093 97.2039C259.342 97.2108 258.611 97.5782 257.986 98.1818C257.363 98.7847 256.868 99.6027 256.595 100.452C256.321 101.305 256.281 102.155 256.519 102.834C256.75 103.494 257.253 104.023 258.152 104.255C258.212 104.27 258.37 104.272 258.618 104.229C258.851 104.188 259.118 104.115 259.369 104.02C259.622 103.924 259.84 103.812 259.984 103.702C260.107 103.607 260.126 103.555 260.128 103.55C260.12 103.362 260.262 103.2 260.451 103.186C260.643 103.171 260.811 103.316 260.825 103.508C260.851 103.851 260.607 104.104 260.409 104.256C260.19 104.424 259.903 104.565 259.616 104.673C259.326 104.783 259.016 104.868 258.738 104.917C258.476 104.963 258.191 104.986 257.978 104.931C256.857 104.642 256.169 103.948 255.86 103.064C255.557 102.2 255.626 101.186 255.93 100.238C256.236 99.2874 256.789 98.368 257.501 97.6797C258.212 96.9921 259.106 96.5145 260.086 96.5055C261.606 96.4917 262.637 97.1144 263.009 98.0926C263.374 99.051 263.049 100.207 262.18 101.145L261.924 100.908L262.18 101.145L262.18 101.145C262.148 101.179 262.111 101.215 262.083 101.242C262.074 101.251 262.066 101.259 262.06 101.266C262.027 101.298 262.007 101.32 261.992 101.34C261.879 101.496 261.66 101.531 261.504 101.417C261.349 101.304 261.314 101.085 261.428 100.929C261.475 100.864 261.526 100.811 261.567 100.771C261.583 100.755 261.596 100.742 261.608 100.73C261.631 100.708 261.648 100.691 261.668 100.67C262.415 99.8629 262.599 98.9793 262.356 98.3412Z" fill="#414042"/>
<path d="M261.066 98.2495C260.494 98.1971 259.922 98.1445 259.35 98.0918L261.066 98.2495Z" fill="white"/>
<path fill-rule="evenodd" clip-rule="evenodd" d="M259.091 98.0674C259.104 97.9233 259.231 97.8173 259.375 97.8305C259.947 97.8832 260.519 97.9358 261.092 97.9882C261.235 98.0014 261.342 98.1289 261.329 98.2729C261.316 98.417 261.188 98.5231 261.044 98.5099C260.472 98.4574 259.899 98.4048 259.327 98.3521C259.183 98.3389 259.077 98.2113 259.091 98.0674Z" fill="#414042"/>
<path d="M261.182 100.066C260.775 100.028 260.369 99.9914 259.963 99.9531L261.182 100.066Z" fill="white"/>
<path fill-rule="evenodd" clip-rule="evenodd" d="M259.702 99.9281C259.716 99.7841 259.843 99.6783 259.987 99.6919C260.202 99.7121 260.413 99.7315 260.625 99.7509C260.817 99.7685 261.01 99.7861 261.205 99.8045C261.349 99.818 261.455 99.9457 261.442 100.09C261.428 100.234 261.301 100.34 261.157 100.326C260.966 100.308 260.773 100.29 260.579 100.273C260.364 100.253 260.15 100.233 259.938 100.213C259.794 100.2 259.688 100.072 259.702 99.9281Z" fill="#414042"/>
<path d="M239.653 78.347C239.653 78.347 229.757 98.7039 231.622 102.188C233.487 105.672 242.436 111.26 248.454 108.605C254.472 105.949 255.65 103.936 255.99 101.342C256.296 99.0026 258.284 96.4088 260.844 96.8984C263.405 97.388 263.655 100.731 263.655 100.731C263.655 100.731 268.424 99.1237 269.662 94.8929C270.9 90.662 272.686 80.1688 261.023 81.2188C249.36 82.2687 239.653 78.347 239.653 78.347Z" fill="#414042"/>
<path d="M244.69 120.558L243.415 117.966C242.679 116.472 243.032 114.669 244.277 113.563L247.44 115.53L244.69 120.558Z" fill="#414042"/>
<path d="M104.751 300.761L113.902 293.47L120.004 304.345L110.97 311.946L102.324 309.488L101.079 303.883L104.751 300.761Z" fill="#F2DEB8"/>
<path fill-rule="evenodd" clip-rule="evenodd" d="M102.894 314.785C103.171 314.065 103.98 313.706 104.7 313.984C106.994 314.866 107.851 316.467 108.44 317.851C108.519 318.038 108.592 318.215 108.662 318.383C109.122 319.491 109.427 320.227 110.217 320.825C110.832 321.29 110.953 322.167 110.488 322.782C110.022 323.397 109.146 323.518 108.531 323.052C107.088 321.96 106.487 320.468 106.049 319.383C105.986 319.228 105.927 319.08 105.868 318.944C105.394 317.827 104.944 317.071 103.696 316.591C102.976 316.313 102.617 315.505 102.894 314.785Z" fill="#E48071"/>
<path fill-rule="evenodd" clip-rule="evenodd" d="M99.8916 323.051C100.556 322.659 101.412 322.879 101.804 323.543C102.552 324.809 103.354 325.65 104.271 326.446C104.656 326.781 105.051 327.099 105.484 327.448C105.583 327.528 105.685 327.609 105.788 327.694C106.335 328.135 106.924 328.62 107.543 329.188C108.111 329.71 108.149 330.594 107.627 331.162C107.105 331.73 106.221 331.768 105.653 331.246C105.1 330.738 104.566 330.298 104.032 329.866C103.938 329.789 103.842 329.713 103.746 329.636C103.311 329.285 102.866 328.927 102.439 328.556C101.365 327.623 100.341 326.558 99.399 324.964C99.0069 324.3 99.2274 323.443 99.8916 323.051Z" fill="#E48071"/>
<path d="M91.9705 343.23C90.2994 342.808 89.5704 341.951 88.5395 341.176C98.0494 335.16 99.9778 314.49 96.0849 306.202C94.5085 302.845 93.9874 303.655 90.9492 301.987C91.8335 301.781 92.1798 301.54 93.1648 301.365C96.6178 300.753 100.376 299.917 103.961 300.483C104.026 300.493 104.13 300.546 104.182 300.54C104.865 300.454 105.6 301.063 105.773 301.487C105.946 301.911 105.705 301.22 105.826 301.639C105.946 302.058 106.052 303.573 105.988 304.215C105.872 305.372 105.369 306.987 106.562 308.832C107.969 311.007 109.119 310.091 111.133 311.792C111.07 315.807 104.341 326.088 103.208 331.186C101.901 337.073 98.2996 344.831 91.9705 343.23Z" fill="#677CB1"/>
<path d="M88.596 341.172C88.5668 341.191 88.5418 341.178 88.5399 341.177C88.3519 341.06 86.7857 339.983 86.3106 339.373C84.8764 337.529 82.8456 334.202 84.6091 330.183C87.2952 324.064 89.4253 317.747 87.981 311.096C86.9904 306.533 87.3212 302.425 91.2375 301.978C93.2887 301.745 95.0422 302.596 96.3853 306.227C99.5698 314.839 98.0307 335.116 88.596 341.172Z" fill="#F0F1F1"/>
<path d="M89.9966 328.774C89.9859 328.782 89.9991 328.791 89.9987 328.791C89.9296 328.748 89.334 328.34 89.1603 328.116C88.6356 327.441 87.8924 326.224 88.5375 324.753C89.5205 322.513 90.3004 320.202 89.7716 317.768C89.4092 316.098 89.5302 314.594 90.9634 314.431C91.7142 314.345 92.356 314.656 92.8476 315.986C94.0128 319.137 93.4499 326.559 89.9966 328.774Z" fill="#B3CAF8"/>
<path d="M58.1548 276.895L68.3787 271.205L72.6125 282.934L62.5374 288.909L54.3282 285.106L54.0197 279.372L58.1548 276.895Z" fill="#F2DEB8"/>
<path fill-rule="evenodd" clip-rule="evenodd" d="M54.0177 290.427C54.4096 289.762 55.2656 289.541 55.9305 289.932C58.0483 291.18 58.6317 292.9 58.9851 294.361C59.0326 294.559 59.076 294.745 59.1172 294.923C59.3889 296.091 59.569 296.867 60.2499 297.586C60.7806 298.147 60.7559 299.031 60.1956 299.561C59.6357 300.091 58.7515 300.067 58.2213 299.507C56.9776 298.193 56.6286 296.622 56.3747 295.48C56.3383 295.316 56.3042 295.162 56.2691 295.017C55.9843 293.838 55.6641 293.018 54.5124 292.339C53.8474 291.948 53.6262 291.092 54.0177 290.427Z" fill="#E48071"/>
<path fill-rule="evenodd" clip-rule="evenodd" d="M49.6967 298.089C50.4161 297.812 51.225 298.169 51.5029 298.889C52.0324 300.26 52.6856 301.221 53.4589 302.158C53.7839 302.551 54.1212 302.93 54.4909 303.344C54.5759 303.44 54.6628 303.537 54.7514 303.637C55.2174 304.162 55.7192 304.737 56.2365 305.399C56.7113 306.007 56.6033 306.885 55.9951 307.36C55.3874 307.835 54.5095 307.727 54.0347 307.119C53.573 306.528 53.1183 306.005 52.6623 305.492C52.5814 305.401 52.5001 305.309 52.4182 305.218C52.0462 304.8 51.6664 304.374 51.3056 303.937C50.3997 302.841 49.5637 301.623 48.8967 299.896C48.6189 299.176 48.9767 298.367 49.6967 298.089Z" fill="#E48071"/>
<path d="M39.0496 316.517C37.4703 315.826 36.9603 315.121 35.6664 314.066C46.0345 309.693 51.1893 289.657 48.7097 280.842C47.706 277.272 47.0589 277.985 44.3353 275.842C45.2418 275.784 45.6226 275.602 46.6233 275.592C50.1299 275.555 53.9737 275.346 57.4178 276.494C57.4797 276.514 57.5735 276.584 57.626 276.586C58.3142 276.614 58.9398 277.335 59.0407 277.782C59.1417 278.228 59.0176 277.506 59.0675 277.94C59.1174 278.373 58.9736 279.885 58.8047 280.508C58.5002 281.63 57.7387 283.14 58.6133 285.157C59.6437 287.532 60.9293 286.818 62.6367 288.827C61.9153 292.776 53.5899 301.814 51.6364 306.657C49.3804 312.249 45.0302 319.135 39.0496 316.517Z" fill="#677CB1"/>
<path d="M35.6658 314.067C35.634 314.081 35.6653 314.113 35.6633 314.112C35.4975 313.965 34.0773 312.54 33.7072 311.917C32.5125 309.909 31.1373 306.248 33.5368 302.573C37.1905 296.977 40.3286 291.096 39.9953 284.298C39.7668 279.635 40.7677 275.636 44.704 275.838C46.7656 275.945 48.3559 277.072 49.0847 280.875C50.8128 289.892 45.9666 309.642 35.6658 314.067Z" fill="#F0F1F1"/>
<path d="M38.8909 302.449C38.8789 302.454 38.8908 302.467 38.8899 302.466C38.8265 302.41 38.2812 301.863 38.1389 301.624C37.6799 300.853 37.152 299.447 38.0734 298.035C39.4766 295.887 40.6815 293.628 40.5535 291.018C40.4657 289.227 40.85 287.692 42.3615 287.77C43.1535 287.81 43.7641 288.243 44.0438 289.704C44.7076 293.166 42.8465 300.75 38.8909 302.449Z" fill="#B3CAF8"/>
<path d="M205.5 105C205.5 105 216.334 107.029 225.162 109.73C233.989 112.431 262.387 129.795 265.915 142.977C267.425 148.621 251.096 152.527 250.858 152.82C250.621 153.113 193.774 131.091 193.774 131.091L205.5 105Z" fill="#677CB1"/>
<path d="M313.781 180.314C313.781 180.314 333.867 176.064 332.491 180.408C331.603 183.209 327.345 185.358 327.345 185.358C327.345 185.358 346.119 185.735 345.747 189.589C345.375 193.444 336.692 202.997 331.771 202.271C326.946 201.56 311.052 198.777 310.09 194.556C309.128 190.335 313.781 180.314 313.781 180.314Z" fill="#F2DEB8"/>
<path fill-rule="evenodd" clip-rule="evenodd" d="M125.507 233.236L157.955 187.667L173.316 198.605L138.532 247.455L68.7237 288.47L59.1708 272.212L125.507 233.236Z" fill="#E48071"/>
<path fill-rule="evenodd" clip-rule="evenodd" d="M160.721 179.7L185.219 193.102L203.635 205.32L193.21 221.034L175.463 209.26L151.671 196.244L160.721 179.7Z" fill="#E48071"/>
<path fill-rule="evenodd" clip-rule="evenodd" d="M199.165 209.998L170.444 263.254L119.422 308.792L106.866 294.723L155.417 251.389L182.567 201.047L199.165 209.998Z" fill="#E48071"/>
<path fill-rule="evenodd" clip-rule="evenodd" d="M198.011 128.958C197.914 128.951 197.808 128.943 197.692 128.934C197.046 128.885 196.12 128.816 195.004 128.734C192.769 128.571 189.789 128.362 186.785 128.172C183.759 127.981 180.803 127.816 178.58 127.737C178.458 127.733 178.341 127.729 178.227 127.726L146.463 146.398L133.721 124.722L168.365 104.357L168.459 104.304C170.309 103.259 172.012 102.934 172.403 102.859C172.414 102.857 172.424 102.855 172.433 102.853C173.087 102.727 173.648 102.668 173.988 102.637C174.69 102.574 175.37 102.556 175.88 102.55C176.945 102.536 178.21 102.565 179.474 102.61C182.049 102.702 185.28 102.884 188.369 103.079C191.483 103.275 194.549 103.491 196.831 103.657C197.974 103.741 198.924 103.812 199.59 103.862C199.849 103.882 200.065 103.898 200.233 103.911C203.902 103.997 206.798 104.98 209.533 106.493L209.939 106.717L262.14 140.823C264.884 142.616 267.232 144.952 269.04 147.687L269.226 147.969L281.305 168.572L318.266 176.043L313.285 200.688L265.301 190.989L248.134 161.707L198.011 128.958Z" fill="#677CB1"/>
<path d="M247.001 162.033C238.488 180.859 214.08 208.695 210.107 211.883C207.109 214.287 193.992 206.402 181.399 197.52C175.865 193.614 170.43 189.513 166 186.014C161.903 182.77 158.675 180.04 157.024 178.452C149.556 171.258 201.398 119.423 201.398 119.423L217.45 128.554L232.265 136.981L243.835 143.567C243.835 143.567 250.344 154.651 247.001 162.033Z" fill="#677CB1"/>
<path d="M172.419 187.816L176.057 190.306C185.838 197 199.193 194.498 205.887 184.718L227.511 153.125C234.205 143.344 231.704 129.989 221.923 123.295L218.284 120.804C213.568 117.576 207.127 118.782 203.899 123.499L169.724 173.43C166.495 178.146 167.702 184.587 172.419 187.816Z" fill="#414042"/>
<path opacity="0.46" d="M226.038 133.439C229.888 135.629 231.104 140.694 228.521 144.291C228.504 144.314 228.487 144.338 228.47 144.361L198.344 186.184C194.157 191.997 188.079 195.853 181.399 197.52C175.865 193.614 170.43 189.513 166 186.014C161.903 182.77 158.675 180.04 157.024 178.452C149.556 171.258 201.398 119.423 201.398 119.423L217.45 128.554L226.038 133.439Z" fill="#414042"/>
<path d="M222.933 136.243L190.244 187.164C187.156 191.977 180.757 193.373 175.944 190.286L172.24 187.9C165.267 183.423 161.753 175.584 162.459 167.866C162.764 164.555 163.846 161.25 165.77 158.246L171.524 149.285L186.453 126.028C191.21 118.618 200.058 115.05 208.374 116.343C210.782 116.713 213.153 117.494 215.366 118.708C215.791 118.941 216.207 119.189 216.615 119.451L220.295 121.941C220.674 122.186 221.035 122.451 221.365 122.744C222.715 123.89 223.659 125.355 224.192 126.95C225.194 129.915 224.779 133.369 222.933 136.243Z" fill="#E48071"/>
<path d="M250.271 124.494C250.227 124.566 249.856 124.141 249.096 123.674C246.494 122.072 239.361 119 224.858 126.599C224.637 126.708 224.416 126.825 224.193 126.949C223.661 125.353 222.716 123.888 221.366 122.743C221.855 122.416 222.368 122.083 222.909 121.768C228.042 118.705 235.468 116.356 244.242 119.676C244.242 119.676 246.778 121.159 248.157 122.24C249.246 123.09 250.271 124.494 250.271 124.494Z" fill="#E48071"/>
<path d="M222.931 108.988C220.408 111.071 218.22 113.969 216.458 116.844C216.071 117.468 215.707 118.093 215.366 118.705C213.154 117.491 210.782 116.71 208.375 116.341C208.723 115.555 209.105 114.818 209.512 114.129C211.995 109.844 215.202 107.293 215.946 106.723C216.051 106.649 216.168 106.614 216.293 106.64C216.472 106.679 216.812 106.753 217.453 106.938C218.663 107.27 221.764 108.26 222.859 108.604C223.028 108.664 223.069 108.88 222.931 108.988Z" fill="#E48071"/>
<path d="M246.993 162.098C246.993 162.098 218.386 180.061 205.343 178.705L202.675 182.741C202.675 182.741 215.863 182.485 229.29 175.723C242.717 168.96 244.276 168.083 244.961 167.275C245.548 166.584 247.283 163.563 247.38 162.368C247.396 162.168 247.113 162.086 246.993 162.098Z" fill="#E48071"/>
<path d="M201.402 184.902L201.089 184.722C200.313 184.277 200.044 183.286 200.49 182.51L204.04 176.323C204.485 175.547 205.476 175.278 206.253 175.724L206.565 175.904C207.341 176.349 207.61 177.34 207.164 178.116L203.614 184.302C203.169 185.079 202.178 185.347 201.402 184.902Z" fill="#E48071"/>
<path d="M206.018 135.327L190.646 125.459C190.061 125.083 189.891 124.303 190.267 123.718C190.643 123.133 191.422 122.963 192.007 123.339L207.379 133.207C207.965 133.583 208.134 134.363 207.758 134.948C207.382 135.533 206.604 135.703 206.018 135.327Z" fill="#414042"/>
<path d="M192.206 163.762L184.479 174.239C182.294 177.202 178.184 177.96 175.086 175.972L162.457 167.867C162.762 164.555 163.844 161.25 165.769 158.246L171.523 149.286C171.782 149.263 172.048 149.323 172.284 149.473L191.83 162.022C192.409 162.397 192.582 163.175 192.206 163.762Z" fill="#414042"/>
<path d="M206.85 134.217C206.85 134.217 202.631 135.724 202.547 139.738C202.464 143.751 207.539 137.829 206.85 134.217Z" fill="#414042"/>
<path fill-rule="evenodd" clip-rule="evenodd" d="M346.204 193.804L334.443 192.176L334.539 191.484L346.299 193.112L346.204 193.804Z" fill="#414042"/>
<path fill-rule="evenodd" clip-rule="evenodd" d="M343.124 197.105L330.334 195.335L330.429 194.644L343.22 196.414L343.124 197.105Z" fill="#414042"/>
<path fill-rule="evenodd" clip-rule="evenodd" d="M339.01 200.267L328.517 198.699L328.62 198.008L339.113 199.577L339.01 200.267Z" fill="#414042"/>
<path fill-rule="evenodd" clip-rule="evenodd" d="M126.795 304.711L117.456 294.079L117.981 293.618L127.32 304.25L126.795 304.711Z" fill="#414042"/>
<path fill-rule="evenodd" clip-rule="evenodd" d="M76.2686 286.183L69.9722 273.509L70.5976 273.198L76.894 285.872L76.2686 286.183Z" fill="#414042"/>
<path opacity="0.46" d="M215.575 116.328C215.878 116.49 216.172 116.666 216.459 116.843C216.072 117.466 215.708 118.091 215.367 118.703C213.154 117.49 210.783 116.709 208.375 116.34C208.724 115.555 209.105 114.817 209.513 114.128C211.599 114.544 213.651 115.268 215.575 116.328Z" fill="#414042"/>
<path opacity="0.46" d="M224.859 126.599C224.638 126.708 224.416 126.825 224.194 126.949C223.661 125.353 222.717 123.888 221.367 122.743C221.856 122.416 222.369 122.083 222.91 121.768C223.568 122.618 224.066 123.569 224.402 124.572C224.624 125.226 224.776 125.904 224.859 126.599Z" fill="#414042"/>
<path d="M103.668 302.012C103.668 302.012 105.513 297.793 106.23 298.278C106.947 298.763 108.519 299.968 107.687 300.495C106.854 301.022 104.555 302.607 104.555 302.607L103.668 302.012Z" fill="#677CB1"/>
<path d="M56.7693 278.118C56.7693 278.118 59.1932 274.204 59.8344 274.786C60.4762 275.367 61.8616 276.782 60.9625 277.186C60.0638 277.59 57.5631 278.833 57.5631 278.833L56.7693 278.118Z" fill="#677CB1"/>
</svg>
