<svg width="309" height="280" viewBox="0 0 309 280" fill="none" xmlns="http://www.w3.org/2000/svg">
<path d="M207.469 115.499L88.9417 109.784C83.4544 109.52 75.824 103.77 72.0312 97.0403L70.0928 93.6012C66.3003 86.8722 67.6853 81.5734 73.1616 81.8576L191.45 87.9952C196.926 88.2794 204.603 93.9475 208.462 100.557L210.435 103.936C214.381 110.693 212.957 115.763 207.469 115.499Z" fill="#CCEBE6"/>
<path d="M231.454 156.679L112.568 151.599C107.064 151.364 99.4198 145.637 95.6274 138.908L93.689 135.469C89.8966 128.74 91.2952 123.417 96.788 123.672L215.435 129.175C220.927 129.43 228.618 135.074 232.477 141.684L234.45 145.062C238.31 151.672 236.958 156.914 231.454 156.679Z" fill="#CCEBE6"/>
<path d="M255.353 197.714L136.111 193.267C130.59 193.061 122.932 187.358 119.14 180.629L117.201 177.19C113.409 170.461 114.821 165.113 120.33 165.339L239.334 170.21C244.843 170.436 252.547 176.057 256.407 182.666L258.38 186.045C262.239 192.654 260.874 197.92 255.353 197.714Z" fill="#FFC6C2"/>
<path d="M279.256 238.747L159.657 234.931C154.12 234.754 146.449 229.077 142.656 222.348L140.718 218.909C136.925 212.179 138.351 206.808 143.877 207.004L263.237 211.244C268.763 211.44 276.48 217.036 280.34 223.646L282.313 227.025C286.173 233.634 284.793 238.924 279.256 238.747Z" fill="#CCEBE6"/>
<path d="M303.158 279.784L183.201 276.6C177.648 276.452 169.963 270.798 166.17 264.069L164.232 260.63C160.439 253.901 161.879 248.506 167.421 248.673L287.139 252.28C292.681 252.447 300.412 258.019 304.272 264.629L306.244 268.007C310.104 274.617 308.711 279.931 303.158 279.784Z" fill="#FFC6C2"/>
<path d="M115.082 144.864L113.983 144.816C110.926 144.683 106.794 141.589 104.684 137.856L104.515 137.557C102.406 133.823 103.16 130.947 106.213 131.086L107.312 131.136C110.366 131.275 114.498 134.368 116.611 138.096L116.78 138.394C118.931 141.978 118.139 144.998 115.082 144.864Z" fill="#FF8270"/>
<path d="M91.5187 103.23L90.4222 103.176C87.3748 103.026 83.2499 99.9196 81.1404 96.1862L80.8873 95.7383C78.7774 92.0042 79.5248 89.1419 82.5692 89.297L83.6645 89.3528C86.7089 89.5079 90.8336 92.6136 92.9467 96.342L93.1157 96.6401C95.3508 100.374 94.5661 103.379 91.5187 103.23Z" fill="#FF8270"/>
<path d="M162.208 228.125L161.101 228.089C158.026 227.988 153.879 224.92 151.77 221.187L151.601 220.888C149.492 217.155 150.261 214.253 153.333 214.359L154.438 214.398C157.51 214.504 161.657 217.571 163.77 221.299L163.939 221.597C166.175 225.329 165.283 228.226 162.208 228.125Z" fill="#FF8270"/>
<path d="M147.287 10.9725L21.804 3.1582C21.0783 3.11301 20.2567 2.48481 19.751 1.58783C19.2452 0.690771 19.3923 0.123087 20.1178 0.168559L145.574 8.03121C146.3 8.07672 147.127 8.69523 147.641 9.5775C148.155 10.4597 148.014 11.0178 147.287 10.9725Z" fill="#CCEBE6"/>
<path d="M205.691 68.7113L31.5645 59.1986C23.5461 58.758 12.4533 50.2894 6.91391 40.3795L4.05993 35.2738C-1.47942 25.3639 0.529634 15.6511 8.52426 16.1338L181.136 26.5564C189.131 27.0392 202.323 38.3324 208.007 47.9862L210.935 52.96C216.619 62.6138 210.709 69.1519 205.691 68.7113Z" fill="url(#paint0_linear)"/>
<path d="M205.691 66.7113L32.5645 57.1986C24.5461 56.758 13.4533 48.2894 7.91391 38.3795L5.05993 33.2738C-0.479417 23.3639 1.52963 15.6511 9.52426 16.1338L182.136 26.5564C190.131 27.0392 201.323 35.3324 207.007 44.9862L209.935 49.96C215.619 59.6138 213.709 67.1519 205.691 66.7113Z" fill="url(#paint1_linear)"/>
<g style="mix-blend-mode:overlay" filter="url(#filter0_f)">
<path d="M41.7721 48.8303L39.6616 48.7267C33.7956 48.4386 25.8558 42.4586 21.7953 35.2723L21.3082 34.4102C17.2469 27.2225 18.6854 21.7131 24.5455 22.0116L26.6539 22.119C32.5139 22.4175 40.4533 28.3956 44.5209 35.5722L44.8461 36.146C49.1485 43.3329 47.6381 49.1184 41.7721 48.8303Z" fill="black" fill-opacity="0.2"/>
</g>
<path d="M40.772 36.8301L38.6615 36.7265C32.7955 36.4384 24.9986 30.4993 20.499 22.4993L20.0119 21.6373C15.9506 14.4496 18.6394 8.70088 24.4995 8.9994L26.6079 9.10681C32.468 9.40534 41.1073 16.7497 45.1749 23.9263L45.5001 24.5001C49.0001 30.5001 47.4986 36.8301 40.772 36.8301Z" fill="url(#paint2_linear)"/>
<path d="M41.7721 35.8303L39.6616 35.7267C33.7956 35.4386 25.8558 29.4586 21.7953 22.2723L21.3082 21.4102C17.2469 14.2225 18.6854 8.71306 24.5455 9.01158L26.6539 9.11899C32.5139 9.41751 40.4533 15.3956 44.5209 22.5722L44.8461 23.146C49.1485 30.3329 47.6381 36.1184 41.7721 35.8303Z" fill="#FF8270"/>
<defs>
<filter id="filter0_f" x="14.0015" y="17" width="38.3125" height="36.8407" filterUnits="userSpaceOnUse" color-interpolation-filters="sRGB">
<feFlood flood-opacity="0" result="BackgroundImageFix"/>
<feBlend mode="normal" in="SourceGraphic" in2="BackgroundImageFix" result="shape"/>
<feGaussianBlur stdDeviation="2.5" result="effect1_foregroundBlur"/>
</filter>
<linearGradient id="paint0_linear" x1="121.5" y1="70.5003" x2="18.9995" y2="60.5003" gradientUnits="userSpaceOnUse">
<stop offset="0.0780643" stop-color="#E1FFFA"/>
<stop offset="0.869474" stop-color="#DFFFFA"/>
<stop offset="0.926004" stop-color="#B5DBD5"/>
<stop offset="1" stop-color="#E1FFFA"/>
</linearGradient>
<linearGradient id="paint1_linear" x1="107.569" y1="16.1123" x2="102.001" y2="81.5" gradientUnits="userSpaceOnUse">
<stop stop-color="#CCEBE6"/>
<stop offset="0.784683" stop-color="#A9D2CE"/>
</linearGradient>
<linearGradient id="paint2_linear" x1="47.0014" y1="40.9911" x2="21.9414" y2="42.4391" gradientUnits="userSpaceOnUse">
<stop stop-color="#E6ACA8"/>
<stop offset="0.445019" stop-color="#F9E6E4"/>
<stop offset="1" stop-color="#F9E5E4"/>
</linearGradient>
</defs>
</svg>
