<svg width="429" height="458" viewBox="0 0 429 458" fill="none" xmlns="http://www.w3.org/2000/svg">
<mask id="mask0" mask-type="alpha" maskUnits="userSpaceOnUse" x="0" y="0" width="429" height="458">
<path fill-rule="evenodd" clip-rule="evenodd" d="M422.304 415.546L201.213 37.3183C191.213 22.2548 175.375 12.6755 160.783 11.741L32.0261 1.09171C4.46649 -2.00374 -7.19543 17.4118 6.64926 42.0076L219.672 421.952C232.95 443.172 247.372 454.355 269.896 454.917L397.918 457.437C425.014 459.104 436.173 439.105 422.304 415.546Z" fill="#C3C3C3"/>
</mask>
<g mask="url(#mask0)">
<g filter="url(#filter0_f)">
<path d="M273.691 142.711L100.565 133.199C92.5466 132.758 81.4537 124.289 75.9144 114.38L73.0604 109.274C67.5211 99.3639 69.5301 91.6511 77.5248 92.1338L250.137 102.556C258.132 103.039 269.323 111.332 275.007 120.986L277.936 125.96C283.62 135.614 281.71 143.152 273.691 142.711Z" fill="black" fill-opacity="0.05"/>
</g>
</g>
<path d="M253.691 132.711L79.565 123.198C71.5466 122.758 60.4537 114.289 54.9144 104.379L52.0604 99.2735C46.5211 89.3636 48.5301 79.6508 56.5248 80.1335L229.137 90.5561C237.132 91.0389 250.323 102.332 256.007 111.986L258.936 116.96C264.62 126.613 258.71 133.152 253.691 132.711Z" fill="url(#paint0_linear)"/>
<path d="M253.691 130.711L80.565 121.199C72.5466 120.758 61.4537 112.289 55.9144 102.38L53.0604 97.2738C47.5211 87.3639 49.5301 79.6511 57.5248 80.1338L230.137 90.5564C238.132 91.0392 249.323 99.3324 255.007 108.986L257.936 113.96C263.62 123.614 261.71 131.152 253.691 130.711Z" fill="url(#paint1_linear)"/>
<g style="mix-blend-mode:overlay" filter="url(#filter1_f)">
<path d="M89.7726 112.83L87.6621 112.727C81.7961 112.439 73.8562 106.459 69.7957 99.2723L69.3087 98.4102C65.2474 91.2225 66.6859 85.7131 72.546 86.0116L74.6544 86.119C80.5144 86.4175 88.4538 92.3956 92.5214 99.5722L92.8466 100.146C97.149 107.333 95.6386 113.118 89.7726 112.83Z" fill="black" fill-opacity="0.2"/>
</g>
<path d="M88.7725 100.83L86.6619 100.726C80.796 100.438 72.9991 94.4993 68.4995 86.4993L68.0124 85.6373C63.9511 78.4496 66.6399 72.7009 72.5 72.9994L74.6084 73.1068C80.4685 73.4053 89.1078 80.7497 93.1754 87.9263L93.5006 88.5001C97.0006 94.5001 95.4991 100.83 88.7725 100.83Z" fill="url(#paint2_linear)"/>
<path d="M89.7726 99.8303L87.6621 99.7267C81.7961 99.4386 73.8562 93.4586 69.7957 86.2723L69.3087 85.4102C65.2474 78.2225 66.6859 72.7131 72.546 73.0116L74.6544 73.119C80.5144 73.4175 88.4538 79.3956 92.5214 86.5722L92.8466 87.146C97.149 94.3329 95.6386 100.118 89.7726 99.8303Z" fill="#FF8270"/>
<path d="M255.47 179.499L136.942 173.784C131.455 173.52 123.825 167.77 120.032 161.04L118.093 157.601C114.301 150.872 115.686 145.573 121.162 145.858L239.45 151.995C244.927 152.279 252.603 157.948 256.463 164.557L258.436 167.936C262.382 174.693 260.957 179.763 255.47 179.499Z" fill="#CCEBE6"/>
<path d="M279.454 220.679L160.569 215.599C155.065 215.364 147.42 209.637 143.628 202.908L141.69 199.469C137.897 192.74 139.296 187.417 144.788 187.672L263.435 193.175C268.928 193.43 276.618 199.074 280.478 205.684L282.451 209.062C286.31 215.672 284.958 220.914 279.454 220.679Z" fill="#CCEBE6"/>
<path d="M303.354 261.714L184.111 257.267C178.591 257.061 170.933 251.358 167.14 244.629L165.202 241.19C161.409 234.461 162.821 229.113 168.331 229.339L287.334 234.21C292.843 234.436 300.548 240.057 304.407 246.666L306.38 250.045C310.24 256.654 308.874 261.92 303.354 261.714Z" fill="#FFC6C2"/>
<path d="M327.257 302.747L207.657 298.931C202.12 298.754 194.449 293.077 190.657 286.348L188.718 282.909C184.925 276.179 186.351 270.808 191.877 271.004L311.238 275.244C316.763 275.44 324.481 281.036 328.341 287.646L330.314 291.025C334.173 297.634 332.794 302.924 327.257 302.747Z" fill="#CCEBE6"/>
<path d="M351.158 343.784L231.202 340.6C225.648 340.452 217.963 334.798 214.171 328.069L212.232 324.63C208.44 317.901 209.879 312.506 215.422 312.673L335.139 316.28C340.681 316.447 348.412 322.019 352.272 328.629L354.245 332.007C358.105 338.617 356.712 343.931 351.158 343.784Z" fill="#FFC6C2"/>
<path d="M163.083 208.864L161.983 208.816C158.926 208.683 154.794 205.589 152.685 201.856L152.516 201.557C150.406 197.823 151.16 194.947 154.214 195.086L155.313 195.136C158.366 195.275 162.499 198.368 164.611 202.096L164.781 202.394C166.932 205.978 166.139 208.998 163.083 208.864Z" fill="#FF8270"/>
<path d="M139.519 167.23L138.423 167.176C135.375 167.026 131.25 163.92 129.141 160.186L128.888 159.738C126.778 156.004 127.525 153.142 130.57 153.297L131.665 153.353C134.709 153.508 138.834 156.614 140.947 160.342L141.116 160.64C143.351 164.374 142.567 167.379 139.519 167.23Z" fill="#FF8270"/>
<path d="M210.208 292.125L209.102 292.089C206.027 291.988 201.88 288.92 199.77 285.187L199.602 284.888C197.492 281.155 198.261 278.253 201.333 278.359L202.438 278.398C205.51 278.504 209.657 281.571 211.77 285.299L211.939 285.597C214.175 289.329 213.283 292.226 210.208 292.125Z" fill="#FF8270"/>
<path d="M195.288 74.9725L69.8045 67.1582C69.0788 67.113 68.2572 66.4848 67.7515 65.5878C67.2457 64.6908 67.3928 64.1231 68.1183 64.1686L193.574 72.0312C194.301 72.0767 195.127 72.6952 195.641 73.5775C196.155 74.4597 196.014 75.0178 195.288 74.9725Z" fill="#CCEBE6"/>
<defs>
<filter id="filter0_f" x="64.9297" y="87.1123" width="221.279" height="60.6174" filterUnits="userSpaceOnUse" color-interpolation-filters="sRGB">
<feFlood flood-opacity="0" result="BackgroundImageFix"/>
<feBlend mode="normal" in="SourceGraphic" in2="BackgroundImageFix" result="shape"/>
<feGaussianBlur stdDeviation="2.5" result="effect1_foregroundBlur"/>
</filter>
<filter id="filter1_f" x="62.002" y="81" width="38.3125" height="36.8407" filterUnits="userSpaceOnUse" color-interpolation-filters="sRGB">
<feFlood flood-opacity="0" result="BackgroundImageFix"/>
<feBlend mode="normal" in="SourceGraphic" in2="BackgroundImageFix" result="shape"/>
<feGaussianBlur stdDeviation="2.5" result="effect1_foregroundBlur"/>
</filter>
<linearGradient id="paint0_linear" x1="169.5" y1="134.5" x2="67" y2="124.5" gradientUnits="userSpaceOnUse">
<stop offset="0.0780643" stop-color="#E1FFFA"/>
<stop offset="0.869474" stop-color="#DFFFFA"/>
<stop offset="0.926004" stop-color="#B5DBD5"/>
<stop offset="1" stop-color="#E1FFFA"/>
</linearGradient>
<linearGradient id="paint1_linear" x1="155.569" y1="80.1123" x2="150.002" y2="145.5" gradientUnits="userSpaceOnUse">
<stop stop-color="#CCEBE6"/>
<stop offset="0.784683" stop-color="#A9D2CE"/>
</linearGradient>
<linearGradient id="paint2_linear" x1="95.0019" y1="104.991" x2="69.9418" y2="106.439" gradientUnits="userSpaceOnUse">
<stop stop-color="#E6ACA8"/>
<stop offset="0.445019" stop-color="#F9E6E4"/>
<stop offset="1" stop-color="#F9E5E4"/>
</linearGradient>
</defs>
</svg>
