<svg width="316" height="281" viewBox="0 0 316 281" fill="none" xmlns="http://www.w3.org/2000/svg">
<path d="M117.047 76.5154C117.047 76.5154 105.652 95.638 103.206 91.3455C101.629 88.5775 103.05 83.6059 103.05 83.6059C103.05 83.6059 88.9374 98.2782 86.1418 95.1462C83.3461 92.0146 82.1267 78.0708 86.3257 74.6858C90.4421 71.3675 104.353 60.758 108.422 63.0975C112.491 65.4371 117.047 76.5154 117.047 76.5154Z" fill="#F2DEB8"/>
<path fill-rule="evenodd" clip-rule="evenodd" d="M90.7767 77.5044C90.8836 77.6648 90.84 77.8818 90.6796 77.9887L90.4857 77.6977L90.2923 77.4073C90.4527 77.3003 90.6698 77.3439 90.7767 77.5044ZM83.404 82.8245C83.1962 82.9614 83.0429 83.062 83.0076 83.0815C82.8383 83.1741 82.626 83.1118 82.5339 82.9426C82.4413 82.7734 82.503 82.561 82.6722 82.4684C82.6696 82.4702 82.6733 82.468 82.685 82.4605C82.6983 82.4516 82.7222 82.4361 82.7605 82.4114C82.8228 82.3707 82.9106 82.3136 83.0198 82.2413C83.2393 82.0969 83.544 81.8952 83.9058 81.6553C84.6293 81.1755 85.5805 80.544 86.5265 79.9146C87.4729 79.2852 88.4141 78.6583 89.1192 78.189L90.2923 77.4073L90.4857 77.6977L90.6796 77.9887L89.5061 78.7699C88.8014 79.2398 87.8597 79.8666 86.9133 80.496C85.9673 81.1255 85.0161 81.7575 84.2915 82.2376C83.9297 82.4775 83.6239 82.6796 83.404 82.8245Z" fill="#414042"/>
<path fill-rule="evenodd" clip-rule="evenodd" d="M91.2922 81.0475C91.4527 80.9405 91.6697 80.9846 91.7761 81.145C91.883 81.3054 91.8394 81.5225 91.679 81.6289L91.4874 81.3416C91.679 81.6294 91.679 81.6289 91.679 81.6289L90.2205 82.5985C89.3449 83.1804 88.1753 83.9574 87.0014 84.737C85.8269 85.5166 84.6483 86.2989 83.7533 86.8911C83.3057 87.1877 82.9291 87.4364 82.6596 87.6141C82.5248 87.7031 82.4162 87.774 82.339 87.8244C82.272 87.8682 82.2097 87.909 82.1844 87.9223C82.0152 88.0149 81.8033 87.9532 81.7107 87.784C81.6181 87.6148 81.6798 87.4024 81.849 87.3098C81.8463 87.3115 81.8512 87.3079 81.8671 87.2983C81.8836 87.2872 81.9128 87.2687 81.9576 87.2394C82.0332 87.1898 82.1407 87.1195 82.2754 87.0309C82.5444 86.8536 82.9205 86.605 83.3675 86.3088C84.2621 85.7165 85.4407 84.9348 86.6151 84.1551C87.789 83.3755 88.9581 82.5989 89.8342 82.0166L91.2922 81.0475C91.2922 81.0475 91.2922 81.0475 91.4838 81.3358L91.2922 81.0475Z" fill="#414042"/>
<path fill-rule="evenodd" clip-rule="evenodd" d="M92.2922 84.6891C92.4527 84.5821 92.6697 84.6262 92.7761 84.7866C92.883 84.947 92.8394 85.1641 92.679 85.271L92.4856 84.98C92.679 85.271 92.679 85.2705 92.679 85.271L91.2205 86.2401C90.3449 86.822 89.1753 87.599 88.0014 88.3786C86.8269 89.1582 85.6483 89.9405 84.7533 90.5327C84.3057 90.8293 83.9291 91.078 83.6596 91.2557C83.5248 91.3447 83.4162 91.4156 83.339 91.466C83.272 91.5098 83.2097 91.5506 83.1844 91.5639C83.0152 91.6565 82.8033 91.5948 82.7107 91.4256C82.6181 91.2564 82.6798 91.044 82.849 90.9514C82.8463 90.9531 82.8512 90.9495 82.8671 90.9399C82.8836 90.9288 82.9128 90.9103 82.9576 90.881C83.0332 90.8314 83.1407 90.7611 83.2754 90.6725C83.5444 90.4952 83.9205 90.2466 84.3675 89.9504C85.2621 89.3581 86.4407 88.5764 87.6151 87.7967C88.789 87.0171 89.9581 86.2405 90.8342 85.6582L92.2922 84.6891C92.2922 84.6891 92.2922 84.6891 92.463 84.9464L92.2922 84.6891Z" fill="#414042"/>
<path d="M235.197 38.2332C234.784 40.103 233.384 44.9335 231.935 45.7493C230.486 46.5652 230.455 45.0033 229.398 45.0202" fill="#414042"/>
<path d="M207.216 29.4453C203.647 34.9219 196.391 41.227 192.65 47.3766C188.908 53.5269 197.518 63.3608 207.616 62.4394C211.263 62.107 214.261 55.725 216.095 51.7647" fill="#F2DEB8"/>
<path fill-rule="evenodd" clip-rule="evenodd" d="M207.408 29.1524C207.569 29.2577 207.615 29.474 207.509 29.6356C205.832 32.2096 203.353 34.9591 200.826 37.7616C200.637 37.9714 200.447 38.1815 200.258 38.3919C197.526 41.4254 194.8 44.5155 192.948 47.558L192.65 47.3763L192.948 47.558C191.197 50.4363 192.299 54.2584 195.198 57.3192C198.081 60.3646 202.657 62.5412 207.585 62.0915C208.399 62.0172 209.204 61.6022 209.995 60.923C210.785 60.2443 211.539 59.3195 212.246 58.2672C213.663 56.1616 214.86 53.6012 215.778 51.6177C215.859 51.4426 216.067 51.3664 216.242 51.4475C216.417 51.5285 216.493 51.736 216.412 51.9111C215.497 53.8879 214.278 56.4985 212.826 58.6572C212.099 59.7369 211.305 60.7175 210.45 61.4527C209.596 62.1871 208.658 62.6948 207.649 62.7867C202.479 63.2584 197.701 60.9787 194.69 57.7998C191.695 54.6366 190.362 50.4666 192.352 47.1951C194.242 44.0876 197.014 40.9502 199.739 37.9245C199.925 37.7182 200.11 37.5123 200.295 37.3071C202.835 34.4898 205.278 31.7801 206.924 29.2543C207.03 29.0927 207.246 29.0471 207.408 29.1524Z" fill="#414042"/>
<path d="M214.956 51.0925C216.253 51.7546 219.493 54.2455 221.319 53.6739C227.06 51.877 234.197 40.8146 237.163 35.2435C238.406 32.9074 238.46 31.495 239.509 29.3497L223.422 19.4129L215.535 16.273L211.416 15.5903L211.567 21.9576L209.467 23.192L208.264 25.8121L207.478 28.2763" fill="#F2DEB8"/>
<path fill-rule="evenodd" clip-rule="evenodd" d="M211.057 15.1772L215.63 15.935L223.579 19.1001L239.963 29.2193L239.823 29.5035C239.352 30.4675 239.087 31.2777 238.812 32.1164C238.789 32.1889 238.765 32.2615 238.741 32.3345C238.439 33.2539 238.107 34.2134 237.471 35.408C235.981 38.2074 233.445 42.3835 230.558 46.0891C229.114 47.942 227.577 49.6841 226.034 51.0789C224.496 52.4701 222.928 53.5366 221.423 54.0077C220.874 54.1794 220.252 54.113 219.643 53.9412C219.028 53.7685 218.386 53.477 217.777 53.1551C217.165 52.8321 216.573 52.4711 216.057 52.153C216.002 52.119 215.948 52.0857 215.895 52.0529C215.446 51.7747 215.073 51.5449 214.798 51.4043C214.626 51.3165 214.557 51.1062 214.645 50.9342C214.733 50.7627 214.943 50.6943 215.115 50.7821C215.418 50.9366 215.817 51.1839 216.258 51.4563C216.313 51.4902 216.368 51.5242 216.424 51.5587C216.939 51.8762 217.514 52.2262 218.103 52.5372C218.693 52.8493 219.285 53.1149 219.832 53.2692C220.384 53.4244 220.852 53.4548 221.214 53.341C222.58 52.9138 224.058 51.9239 225.566 50.5611C227.068 49.2024 228.578 47.4935 230.006 45.6598C232.864 41.9922 235.379 37.8516 236.855 35.0798C237.462 33.9384 237.779 33.0237 238.078 32.1164C238.102 32.0428 238.126 31.9692 238.15 31.8954C238.397 31.1389 238.649 30.3692 239.06 29.4826L223.264 19.7265L215.442 16.6118L211.776 16.0042L211.921 22.155L209.74 23.4378L208.591 25.9389L207.811 28.3829C207.752 28.5666 207.556 28.668 207.372 28.6094C207.188 28.5508 207.087 28.3543 207.146 28.1705L207.938 25.6861L209.196 22.9469L211.213 21.7611L211.057 15.1772Z" fill="#414042"/>
<path d="M221.564 47.3182C221.564 47.4959 221.696 47.637 221.875 47.6406C222.054 47.6436 222.186 47.5067 222.186 47.3293C222.186 47.1517 222.054 47.01 221.875 47.0071C221.696 47.0041 221.564 47.1406 221.564 47.3182Z" fill="#231F20"/>
<path d="M221.898 47.0083C221.891 47.0076 221.883 47.0069 221.875 47.0069C221.696 47.0042 221.564 47.1405 221.564 47.3183C221.564 47.4878 221.685 47.6249 221.852 47.6395C221.86 47.6402 221.867 47.6403 221.875 47.6405C222.054 47.6436 222.186 47.5071 222.186 47.3292C222.186 47.1595 222.065 47.0229 221.898 47.0083Z" fill="#414042"/>
<path d="M223.335 49.0829C223.336 49.2611 223.471 49.3999 223.649 49.403C223.827 49.406 223.961 49.2691 223.96 49.0914C223.959 48.9136 223.825 48.7739 223.647 48.7719C223.468 48.7693 223.335 48.9052 223.335 49.0829Z" fill="#231F20"/>
<path d="M223.672 48.7712C223.664 48.7704 223.655 48.7702 223.646 48.7704C223.468 48.7678 223.335 48.9033 223.335 49.0815C223.336 49.2517 223.459 49.3854 223.625 49.4C223.633 49.4006 223.641 49.4013 223.649 49.4015C223.827 49.4046 223.961 49.2677 223.96 49.0899C223.959 48.9212 223.838 48.7857 223.672 48.7712Z" fill="#414042"/>
<path d="M224.734 50.0531C224.734 50.2309 224.869 50.3701 225.047 50.3727C225.226 50.3758 225.36 50.2389 225.358 50.0616C225.357 49.8838 225.224 49.7437 225.045 49.7416C224.866 49.7395 224.733 49.8749 224.734 50.0531Z" fill="#231F20"/>
<path d="M225.07 49.7428C225.062 49.7421 225.053 49.7418 225.045 49.7416C224.866 49.7395 224.733 49.8749 224.734 50.0532C224.734 50.2229 224.857 50.357 225.023 50.3716C225.031 50.3723 225.039 50.373 225.047 50.3727C225.226 50.3758 225.36 50.2394 225.358 50.0616C225.358 49.8924 225.236 49.7573 225.07 49.7428Z" fill="#414042"/>
<path d="M221.864 51.3666C221.865 51.5443 222 51.6836 222.178 51.6867C222.357 51.6892 222.49 51.5528 222.489 51.3751C222.488 51.1973 222.354 51.0571 222.175 51.055C221.997 51.0529 221.864 51.1884 221.864 51.3666Z" fill="#231F20"/>
<path d="M222.201 51.0533C222.192 51.0526 222.184 51.0524 222.175 51.0521C221.997 51.05 221.864 51.186 221.864 51.3637C221.865 51.5334 221.987 51.6676 222.153 51.6821C222.162 51.6828 222.17 51.6835 222.178 51.6833C222.357 51.6863 222.49 51.5499 222.489 51.3722C222.488 51.203 222.367 51.0678 222.201 51.0533Z" fill="#414042"/>
<path d="M228.999 42.8644C229 43.0424 229.136 43.1804 229.314 43.1835C229.492 43.1866 229.627 43.0519 229.626 42.8739C229.626 42.6959 229.49 42.5577 229.311 42.555C229.133 42.5524 228.999 42.6866 228.999 42.8644Z" fill="#231F20"/>
<path d="M229.336 42.5583C229.328 42.5576 229.32 42.5568 229.311 42.5568C229.133 42.5542 228.999 42.6881 228.999 42.8659C229 43.036 229.124 43.1693 229.29 43.1839C229.298 43.1846 229.306 43.1853 229.314 43.1852C229.492 43.1882 229.627 43.0536 229.626 42.8754C229.625 42.706 229.502 42.5728 229.336 42.5583Z" fill="#414042"/>
<path d="M221.863 44.1642C221.864 44.3424 222 44.4806 222.178 44.4836C222.356 44.4865 222.492 44.3523 222.49 44.1741C222.489 43.9959 222.353 43.8574 222.175 43.8549C221.996 43.8526 221.862 43.9862 221.863 44.1642Z" fill="#231F20"/>
<path d="M222.2 43.8582C222.192 43.8574 222.183 43.857 222.175 43.857C221.996 43.8547 221.862 43.9882 221.863 44.166C221.863 44.3362 221.988 44.4699 222.154 44.4844C222.162 44.4851 222.17 44.4858 222.178 44.4857C222.356 44.4884 222.492 44.3542 222.49 44.176C222.489 44.0066 222.366 43.8727 222.2 43.8582Z" fill="#414042"/>
<path d="M227.524 44.9799C227.525 45.1579 227.659 45.2983 227.838 45.2996C228.017 45.3011 228.15 45.163 228.149 44.9847C228.148 44.8065 228.015 44.6666 227.835 44.6655C227.656 44.6644 227.524 44.8018 227.524 44.9799Z" fill="#231F20"/>
<path d="M227.863 44.6668C227.854 44.666 227.845 44.6656 227.835 44.6655C227.656 44.6642 227.524 44.8016 227.524 44.9798C227.525 45.1484 227.645 45.2836 227.811 45.2981C227.82 45.2989 227.829 45.2993 227.838 45.2994C228.017 45.301 228.15 45.1629 228.149 44.9847C228.148 44.8157 228.028 44.6813 227.863 44.6668Z" fill="#414042"/>
<path d="M224.929 42.8288C224.93 43.0063 225.065 43.1456 225.243 43.1473C225.421 43.1492 225.555 43.0125 225.553 42.8346C225.552 42.6568 225.418 42.5176 225.239 42.516C225.06 42.5143 224.928 42.6512 224.929 42.8288Z" fill="#231F20"/>
<path d="M225.266 42.5173C225.257 42.5165 225.248 42.5161 225.239 42.516C225.06 42.5144 224.928 42.6511 224.929 42.829C224.93 42.9976 225.052 43.1318 225.217 43.1462C225.226 43.147 225.234 43.1474 225.243 43.1474C225.421 43.1494 225.555 43.0124 225.553 42.8345C225.552 42.6659 225.431 42.5317 225.266 42.5173Z" fill="#414042"/>
<path d="M224.392 45.3414C224.392 45.5196 224.528 45.6595 224.707 45.6629C224.884 45.6664 225.019 45.5313 225.018 45.3529C225.017 45.1744 224.883 45.0348 224.704 45.0316C224.525 45.0285 224.392 45.1633 224.392 45.3414Z" fill="#231F20"/>
<path d="M224.728 45.0289C224.72 45.0282 224.712 45.0275 224.704 45.0276C224.525 45.0244 224.392 45.1592 224.392 45.3373C224.393 45.5078 224.516 45.6429 224.683 45.6575C224.691 45.6582 224.699 45.6585 224.707 45.6588C224.884 45.6622 225.019 45.5272 225.018 45.3486C225.017 45.1785 224.895 45.0435 224.728 45.0289Z" fill="#414042"/>
<path d="M225.728 47.0798C225.728 47.2581 225.862 47.3981 226.041 47.3996C226.22 47.4011 226.353 47.2629 226.352 47.0846C226.351 46.9066 226.218 46.7664 226.039 46.7651C225.859 46.7638 225.727 46.9014 225.728 47.0798Z" fill="#231F20"/>
<path d="M226.066 46.7683C226.057 46.7675 226.048 46.7671 226.039 46.7671C225.859 46.7661 225.727 46.9036 225.727 47.0821C225.728 47.2511 225.848 47.3859 226.014 47.4004C226.023 47.4011 226.032 47.4016 226.041 47.4016C226.22 47.4033 226.353 47.2651 226.352 47.0869C226.351 46.918 226.231 46.7828 226.066 46.7683Z" fill="#414042"/>
<path d="M226.333 48.4537C226.334 48.632 226.467 48.7721 226.646 48.7738C226.825 48.7749 226.958 48.6369 226.958 48.4587C226.957 48.2804 226.823 48.1403 226.644 48.1391C226.464 48.138 226.332 48.2755 226.333 48.4537Z" fill="#231F20"/>
<path d="M226.671 48.1414C226.662 48.1406 226.653 48.1403 226.644 48.14C226.464 48.1388 226.332 48.2763 226.333 48.4546C226.333 48.6238 226.454 48.7588 226.62 48.7733C226.628 48.774 226.637 48.7743 226.646 48.7746C226.825 48.7757 226.958 48.6378 226.958 48.4595C226.957 48.2908 226.837 48.1558 226.671 48.1414Z" fill="#414042"/>
<path d="M220.208 49.9716C220.209 50.1498 220.345 50.2867 220.523 50.2892C220.7 50.2917 220.836 50.158 220.835 49.9802C220.834 49.8019 220.699 49.6646 220.521 49.6626C220.342 49.6605 220.208 49.7933 220.208 49.9716Z" fill="#231F20"/>
<path d="M220.546 49.6638C220.538 49.6631 220.529 49.6623 220.521 49.6626C220.342 49.6605 220.208 49.7933 220.208 49.9716C220.209 50.1412 220.333 50.2735 220.498 50.288C220.506 50.2887 220.514 50.2894 220.523 50.2892C220.7 50.2917 220.836 50.158 220.835 49.9802C220.834 49.811 220.711 49.6783 220.546 49.6638Z" fill="#414042"/>
<path d="M251.675 25.9764C248.837 28.5421 248.987 27.3841 246.689 29.1917C246.048 32.1129 244.896 34.3616 241.721 33.9365C240.143 33.8876 238.816 33.5899 237.237 33.5441C235.979 34.7454 233.651 36.7833 232.353 37.8612C231.748 38.364 231.223 36.8547 231.244 36.2815C231.318 34.233 231.821 28.9998 231.928 27.7724C232.035 26.5449 231.947 27.4253 231.936 27.3689C231.598 25.7251 227.868 24.0446 227.02 23.6694C222.871 21.8337 217.927 20.2608 215.165 16.9785C214.92 16.6868 215.053 16.6461 214.971 16.5783C214.358 16.0756 213.979 15.3302 213.074 16.3236C212.169 17.3171 210.827 19.6159 209.833 20.8587C209.727 21.7285 204.659 27.0753 204.742 26.7672C204.914 23.779 211.644 4.40432 214.165 5.02788C216.686 5.65119 218.972 7.54262 219.657 6.48538C222.762 1.68896 226.541 2.10093 231.121 3.97756C231.735 4.22936 232.784 4.91094 233.657 5.24169C239.304 7.38076 247.087 10.3362 253.048 7.74218C252.055 10.0841 251.05 12.4252 250.057 14.7616C253.972 15.0023 256.974 12.94 259.961 10.8501C258.45 15.3033 254.512 23.4108 251.675 25.9764Z" fill="#414042"/>
<path d="M229.478 39.5339C229.524 40.1499 227.61 40.7326 227.066 40.5926C223.024 39.5518 225.628 32.8862 229.091 32.8546C231.943 32.8287 232.541 35.1621 230.925 36.9072C230.853 36.985 230.773 37.0494 230.711 37.1347" fill="#F2DEB8"/>
<path fill-rule="evenodd" clip-rule="evenodd" d="M231.358 34.3412C231.123 33.7229 230.428 33.1918 229.095 33.2039L229.091 32.8547L229.095 33.2039C228.344 33.2108 227.613 33.5782 226.988 34.1818C226.365 34.7847 225.87 35.6027 225.597 36.4521C225.323 37.3047 225.283 38.1548 225.521 38.8336C225.752 39.4936 226.255 40.023 227.154 40.2545C227.214 40.2698 227.372 40.2723 227.62 40.229C227.853 40.1884 228.12 40.1155 228.371 40.0204C228.624 39.9241 228.842 39.8123 228.986 39.7018C229.109 39.6073 229.128 39.5551 229.13 39.5497C229.121 39.3618 229.264 39.1999 229.453 39.1858C229.645 39.1714 229.813 39.3156 229.827 39.508C229.853 39.8511 229.609 40.1043 229.411 40.2562C229.192 40.4239 228.905 40.5645 228.618 40.6734C228.328 40.7835 228.018 40.8685 227.74 40.917C227.478 40.9629 227.193 40.9857 226.98 40.9309C225.858 40.6421 225.171 39.9479 224.862 39.0645C224.559 38.1997 224.628 37.1864 224.932 36.2384C225.238 35.2874 225.791 34.368 226.503 33.6797C227.214 32.9921 228.108 32.5145 229.088 32.5055C230.608 32.4917 231.639 33.1144 232.011 34.0926C232.376 35.051 232.051 36.2067 231.182 37.1447L230.926 36.908L231.182 37.1446L231.182 37.1447C231.15 37.1791 231.113 37.2152 231.085 37.2424C231.076 37.2513 231.068 37.2592 231.062 37.2658C231.029 37.2984 231.009 37.3203 230.994 37.3404C230.881 37.4963 230.662 37.5307 230.506 37.4171C230.351 37.3036 230.316 37.0852 230.429 36.9293C230.477 36.864 230.528 36.8111 230.569 36.7708C230.585 36.7548 230.598 36.7417 230.61 36.7301C230.633 36.7079 230.65 36.6911 230.669 36.67C231.417 35.8629 231.601 34.9793 231.358 34.3412Z" fill="#414042"/>
<path d="M230.066 34.2495C229.494 34.1971 228.922 34.1445 228.35 34.0918L230.066 34.2495Z" fill="white"/>
<path fill-rule="evenodd" clip-rule="evenodd" d="M228.091 34.0674C228.104 33.9233 228.231 33.8173 228.375 33.8305C228.947 33.8832 229.519 33.9358 230.092 33.9882C230.235 34.0014 230.342 34.1289 230.329 34.2729C230.316 34.417 230.188 34.5231 230.044 34.5099C229.472 34.4574 228.899 34.4048 228.327 34.3521C228.183 34.3389 228.077 34.2113 228.091 34.0674Z" fill="#414042"/>
<path d="M230.182 36.0657C229.775 36.0276 229.369 35.9914 228.963 35.9531L230.182 36.0657Z" fill="white"/>
<path fill-rule="evenodd" clip-rule="evenodd" d="M228.702 35.9281C228.716 35.7841 228.843 35.6783 228.987 35.6919C229.202 35.7121 229.413 35.7315 229.625 35.7509C229.817 35.7685 230.01 35.7861 230.205 35.8045C230.349 35.818 230.455 35.9457 230.442 36.0897C230.428 36.2337 230.301 36.3395 230.157 36.326C229.966 36.3081 229.773 36.2905 229.579 36.2727C229.364 36.253 229.15 36.2334 228.938 36.2134C228.794 36.1999 228.688 36.0721 228.702 35.9281Z" fill="#414042"/>
<path d="M208.653 14.347C208.653 14.347 198.757 34.7039 200.622 38.1878C202.487 41.6718 211.436 47.2604 217.454 44.6049C223.472 41.9494 224.65 39.936 224.99 37.3417C225.296 35.0026 227.284 32.4088 229.844 32.8984C232.405 33.388 232.655 36.7314 232.655 36.7314C232.655 36.7314 237.424 35.1237 238.662 30.8929C239.9 26.662 241.686 16.1688 230.023 17.2188C218.36 18.2687 208.653 14.347 208.653 14.347Z" fill="#414042"/>
<path d="M213.69 56.5584L212.415 53.9664C211.679 52.4715 212.032 50.6694 213.277 49.5627L216.44 51.53L213.69 56.5584Z" fill="#414042"/>
<path d="M73.7512 236.761L82.9024 229.47L89.0043 240.345L79.97 247.946L71.3243 245.488L70.0786 239.883L73.7512 236.761Z" fill="#F2DEB8"/>
<path fill-rule="evenodd" clip-rule="evenodd" d="M71.8941 250.785C72.1714 250.065 72.9798 249.706 73.6999 249.984C75.9936 250.866 76.8514 252.467 77.44 253.851C77.519 254.038 77.5924 254.215 77.6625 254.383C78.1217 255.491 78.4272 256.227 79.2171 256.825C79.8319 257.29 79.9529 258.167 79.4876 258.782C79.0217 259.397 78.1458 259.518 77.5306 259.052C76.0882 257.96 75.4865 256.468 75.0489 255.383C74.9862 255.228 74.9268 255.08 74.8685 254.944C74.394 253.827 73.9437 253.071 72.6958 252.591C71.9762 252.313 71.6173 251.505 71.8941 250.785Z" fill="#FF8270"/>
<path fill-rule="evenodd" clip-rule="evenodd" d="M68.8916 259.051C69.5558 258.659 70.4124 258.879 70.8045 259.543C71.552 260.809 72.3538 261.65 73.2708 262.446C73.6557 262.781 74.0509 263.099 74.4837 263.448C74.5831 263.528 74.6849 263.609 74.7884 263.694C75.3345 264.135 75.924 264.62 76.5428 265.188C77.111 265.71 77.1486 266.594 76.6266 267.162C76.1046 267.73 75.2209 267.768 74.6528 267.246C74.1004 266.738 73.5658 266.298 73.0319 265.866C72.9377 265.789 72.842 265.713 72.7464 265.636C72.3112 265.285 71.8663 264.927 71.4385 264.556C70.3652 263.623 69.3406 262.558 68.399 260.964C68.0069 260.3 68.2274 259.443 68.8916 259.051Z" fill="#FF8270"/>
<path d="M60.9705 279.23C59.2994 278.808 58.5704 277.951 57.5395 277.176C67.0494 271.16 68.9778 250.49 65.0849 242.202C63.5085 238.845 62.9874 239.655 59.9492 237.987C60.8335 237.781 61.1798 237.54 62.1648 237.365C65.6178 236.753 69.3755 235.917 72.9613 236.483C73.0256 236.493 73.1299 236.546 73.1817 236.54C73.8648 236.454 74.6004 237.063 74.7732 237.487C74.9464 237.911 74.7052 237.22 74.8256 237.639C74.946 238.058 75.0524 239.573 74.9883 240.215C74.8719 241.372 74.3688 242.987 75.5625 244.832C76.9688 247.007 78.1195 246.091 80.1334 247.792C80.0698 251.807 73.3406 262.088 72.2085 267.186C70.9009 273.073 67.2996 280.831 60.9705 279.23Z" fill="#677CB1"/>
<path d="M57.596 277.172C57.5668 277.191 57.5418 277.178 57.5399 277.177C57.3519 277.06 55.7857 275.983 55.3106 275.373C53.8764 273.529 51.8456 270.202 53.6091 266.183C56.2952 260.064 58.4253 253.747 56.981 247.096C55.9904 242.533 56.3212 238.425 60.2375 237.978C62.2887 237.745 64.0422 238.596 65.3853 242.227C68.5698 250.839 67.0307 271.116 57.596 277.172Z" fill="#F0F1F1"/>
<path d="M58.9966 264.774C58.9859 264.782 58.9991 264.791 58.9987 264.791C58.9296 264.748 58.334 264.34 58.1603 264.116C57.6356 263.441 56.8924 262.224 57.5375 260.753C58.5205 258.513 59.3004 256.202 58.7716 253.768C58.4092 252.098 58.5302 250.594 59.9634 250.431C60.7142 250.345 61.356 250.656 61.8476 251.986C63.0128 255.137 62.4499 262.559 58.9966 264.774Z" fill="#B3CAF8"/>
<path d="M27.1548 212.895L37.3787 207.205L41.6125 218.934L31.5374 224.909L23.3282 221.106L23.0197 215.372L27.1548 212.895Z" fill="#F2DEB8"/>
<path fill-rule="evenodd" clip-rule="evenodd" d="M23.0177 226.427C23.4096 225.762 24.2656 225.541 24.9305 225.932C27.0483 227.18 27.6317 228.9 27.9851 230.361C28.0326 230.559 28.076 230.745 28.1172 230.923C28.3889 232.091 28.569 232.867 29.2499 233.586C29.7806 234.147 29.7559 235.031 29.1956 235.561C28.6357 236.091 27.7515 236.067 27.2213 235.507C25.9776 234.193 25.6286 232.622 25.3747 231.48C25.3383 231.316 25.3042 231.162 25.2691 231.017C24.9843 229.838 24.6641 229.018 23.5124 228.339C22.8474 227.948 22.6262 227.092 23.0177 226.427Z" fill="#FF8270"/>
<path fill-rule="evenodd" clip-rule="evenodd" d="M18.6967 234.089C19.4161 233.812 20.225 234.169 20.5029 234.889C21.0324 236.26 21.6856 237.221 22.4589 238.158C22.7839 238.551 23.1212 238.93 23.4909 239.344C23.5759 239.44 23.6628 239.537 23.7514 239.637C24.2174 240.162 24.7192 240.737 25.2365 241.399C25.7113 242.007 25.6033 242.885 24.9951 243.36C24.3874 243.835 23.5095 243.727 23.0347 243.119C22.573 242.528 22.1183 242.005 21.6623 241.492C21.5814 241.401 21.5001 241.309 21.4182 241.218C21.0462 240.8 20.6664 240.374 20.3056 239.937C19.3997 238.841 18.5637 237.623 17.8967 235.896C17.6189 235.176 17.9767 234.367 18.6967 234.089Z" fill="#FF8270"/>
<path d="M8.04964 252.517C6.47033 251.826 5.9603 251.121 4.6664 250.066C15.0345 245.693 20.1893 225.657 17.7097 216.842C16.706 213.272 16.0589 213.985 13.3353 211.842C14.2418 211.784 14.6226 211.602 15.6233 211.592C19.1299 211.555 22.9737 211.346 26.4178 212.494C26.4797 212.514 26.5735 212.584 26.626 212.586C27.3142 212.614 27.9398 213.335 28.0407 213.782C28.1417 214.228 28.0176 213.506 28.0675 213.94C28.1174 214.373 27.9736 215.885 27.8047 216.508C27.5002 217.63 26.7387 219.14 27.6133 221.157C28.6437 223.532 29.9293 222.818 31.6367 224.827C30.9153 228.776 22.5899 237.814 20.6364 242.657C18.3804 248.249 14.0302 255.135 8.04964 252.517Z" fill="#677CB1"/>
<path d="M4.66578 250.067C4.63395 250.081 4.66525 250.113 4.66335 250.112C4.49748 249.965 3.07729 248.54 2.70715 247.917C1.51249 245.909 0.137308 242.248 2.53677 238.573C6.19054 232.977 9.32858 227.096 8.99529 220.298C8.76684 215.635 9.76768 211.636 13.704 211.838C15.7656 211.945 17.3559 213.072 18.0847 216.875C19.8128 225.892 14.9666 245.642 4.66578 250.067Z" fill="#F0F1F1"/>
<path d="M7.89089 238.449C7.87886 238.454 7.89081 238.467 7.88986 238.466C7.82652 238.41 7.28117 237.863 7.13895 237.624C6.67989 236.853 6.15195 235.447 7.07344 234.035C8.47657 231.887 9.68146 229.628 9.5535 227.018C9.46571 225.227 9.85004 223.692 11.3615 223.77C12.1535 223.81 12.7641 224.243 13.0438 225.704C13.7076 229.166 11.8465 236.75 7.89089 238.449Z" fill="#B3CAF8"/>
<path d="M174.5 40.9995C174.5 40.9995 185.334 43.0294 194.162 45.7302C202.989 48.4314 231.387 65.795 234.915 78.9766C236.425 84.6207 220.096 88.5274 219.858 88.8203C219.621 89.1132 162.774 67.0909 162.774 67.0909L174.5 40.9995Z" fill="#677CB1"/>
<path d="M282.781 116.314C282.781 116.314 302.867 112.064 301.491 116.408C300.603 119.209 296.345 121.358 296.345 121.358C296.345 121.358 315.119 121.735 314.747 125.589C314.375 129.444 305.692 138.997 300.771 138.271C295.946 137.56 280.052 134.777 279.09 130.556C278.128 126.335 282.781 116.314 282.781 116.314Z" fill="#F2DEB8"/>
<path fill-rule="evenodd" clip-rule="evenodd" d="M94.5067 169.236L126.955 123.667L142.316 134.605L107.532 183.455L37.7237 224.47L28.1708 208.212L94.5067 169.236Z" fill="#FF8270"/>
<path fill-rule="evenodd" clip-rule="evenodd" d="M129.721 115.7L154.219 129.102L172.635 141.32L162.21 157.034L144.463 145.26L120.671 132.244L129.721 115.7Z" fill="#FF8270"/>
<path fill-rule="evenodd" clip-rule="evenodd" d="M168.165 145.998L139.444 199.254L88.4224 244.792L75.8658 230.723L124.417 187.389L151.567 137.047L168.165 145.998Z" fill="#FF8270"/>
<path fill-rule="evenodd" clip-rule="evenodd" d="M167.011 64.958C166.914 64.9506 166.808 64.9427 166.692 64.9336C166.046 64.8847 165.12 64.8156 164.004 64.7341C161.769 64.5712 158.789 64.3617 155.785 64.1721C152.759 63.9812 149.803 63.8164 147.58 63.7374C147.458 63.7332 147.341 63.729 147.227 63.7256L115.463 82.3977L102.721 60.7222L137.365 40.3571L137.459 40.3041C139.309 39.2588 141.012 38.9335 141.403 38.8588C141.414 38.8566 141.424 38.8547 141.433 38.853C142.087 38.7268 142.648 38.6676 142.988 38.6371C143.69 38.5743 144.37 38.5561 144.88 38.5495C145.945 38.5358 147.21 38.565 148.474 38.61C151.049 38.7017 154.28 38.8836 157.369 39.0786C160.483 39.2752 163.549 39.4911 165.831 39.6574C166.974 39.7407 167.924 39.8118 168.59 39.8621C168.849 39.8818 169.065 39.8982 169.233 39.9111C172.902 39.9971 175.798 40.9798 178.533 42.4925L178.938 42.7165L231.14 76.8233C233.884 78.6163 236.232 80.9519 238.04 83.6868L238.226 83.9686L250.305 104.572L287.266 112.043L282.285 136.688L234.301 126.989L217.134 97.7072L167.011 64.958Z" fill="#677CB1"/>
<path d="M216.001 98.033C207.488 116.859 183.08 144.695 179.107 147.883C176.109 150.287 162.992 142.402 150.399 133.52C144.865 129.614 139.43 125.513 135 122.014C130.903 118.77 127.675 116.04 126.024 114.452C118.556 107.258 170.398 55.4228 170.398 55.4228L186.45 64.5541L201.265 72.9809L212.835 79.5674C212.835 79.5674 219.344 90.6513 216.001 98.033Z" fill="#677CB1"/>
<path d="M141.419 123.816L145.057 126.306C154.838 133 168.193 130.498 174.887 120.718L196.511 89.1246C203.205 79.3443 200.704 65.989 190.923 59.2951L187.284 56.8045C182.568 53.5761 176.127 54.7824 172.899 59.499L138.724 109.43C135.495 114.146 136.702 120.587 141.419 123.816Z" fill="#414042"/>
<path opacity="0.46" d="M195.038 69.4392C198.888 71.6285 200.104 76.6938 197.521 80.2908C197.504 80.3145 197.487 80.3376 197.47 80.3612L167.344 122.184C163.157 127.997 157.079 131.853 150.399 133.52C144.865 129.614 139.43 125.513 135 122.014C130.903 118.77 127.675 116.04 126.024 114.452C118.556 107.258 170.398 55.4228 170.398 55.4228L186.45 64.5541L195.038 69.4392Z" fill="#414042"/>
<path d="M191.933 72.2434L159.244 123.164C156.156 127.977 149.757 129.373 144.944 126.286L141.24 123.9C134.267 119.423 130.753 111.584 131.459 103.866C131.764 100.555 132.846 97.2503 134.77 94.2461L140.524 85.285L155.453 62.0275C160.21 54.6185 169.058 51.0495 177.374 52.3433C179.782 52.7125 182.153 53.4942 184.366 54.7076C184.791 54.9406 185.207 55.1888 185.615 55.4508L189.295 57.941C189.674 58.186 190.035 58.451 190.365 58.7443C191.715 59.8899 192.659 61.3548 193.192 62.9498C194.194 65.9154 193.779 69.3688 191.933 72.2434Z" fill="#FF8270"/>
<path d="M219.271 60.4943C219.227 60.5658 218.856 60.1408 218.096 59.6739C215.494 58.0715 208.361 55.0001 193.858 62.599C193.637 62.7082 193.416 62.8248 193.193 62.9489C192.661 61.3534 191.716 59.8885 190.366 58.7429C190.855 58.4159 191.368 58.0833 191.909 57.7682C197.042 54.7049 204.468 52.3557 213.242 55.676C213.242 55.676 215.778 57.1592 217.157 58.2395C218.246 59.0902 219.271 60.4943 219.271 60.4943Z" fill="#FF8270"/>
<path d="M191.931 44.9883C189.408 47.0713 187.22 49.9691 185.458 52.844C185.071 53.4676 184.707 54.0928 184.366 54.7049C182.154 53.4914 179.782 52.7103 177.375 52.3411C177.723 51.5554 178.105 50.8184 178.512 50.1293C180.995 45.8443 184.202 43.2926 184.946 42.723C185.051 42.6492 185.168 42.614 185.293 42.6401C185.472 42.6786 185.812 42.7534 186.453 42.9382C187.663 43.2705 190.764 44.2595 191.859 44.6043C192.028 44.6644 192.069 44.8799 191.931 44.9883Z" fill="#FF8270"/>
<path d="M215.993 98.0978C215.993 98.0978 187.386 116.061 174.343 114.705L171.675 118.741C171.675 118.741 184.863 118.485 198.29 111.723C211.717 104.96 213.276 104.083 213.961 103.275C214.548 102.584 216.283 99.5627 216.38 98.368C216.396 98.1677 216.113 98.0862 215.993 98.0978Z" fill="#FF8270"/>
<path d="M170.402 120.902L170.089 120.722C169.313 120.277 169.044 119.286 169.49 118.51L173.04 112.323C173.485 111.547 174.476 111.278 175.253 111.724L175.565 111.904C176.341 112.349 176.61 113.34 176.164 114.116L172.614 120.302C172.169 121.079 171.178 121.347 170.402 120.902Z" fill="#FF8270"/>
<path d="M175.018 71.3274L159.646 61.4586C159.061 61.0827 158.891 60.3034 159.267 59.7185C159.643 59.133 160.422 58.9632 161.007 59.3391L176.379 69.2075C176.965 69.5834 177.134 70.3627 176.758 70.9477C176.382 71.5331 175.604 71.7029 175.018 71.3274Z" fill="#414042"/>
<path d="M161.206 99.7619L153.479 110.239C151.294 113.202 147.184 113.96 144.086 111.972L131.457 103.867C131.762 100.555 132.844 97.2504 134.769 94.2462L140.523 85.2856C140.782 85.2626 141.048 85.3235 141.284 85.4727L160.83 98.0219C161.409 98.3973 161.582 99.1754 161.206 99.7619Z" fill="#414042"/>
<path d="M175.85 70.2175C175.85 70.2175 171.631 71.7245 171.547 75.738C171.464 79.751 176.539 73.8293 175.85 70.2175Z" fill="#414042"/>
<path fill-rule="evenodd" clip-rule="evenodd" d="M315.204 129.804L303.443 128.176L303.539 127.484L315.299 129.112L315.204 129.804Z" fill="#414042"/>
<path fill-rule="evenodd" clip-rule="evenodd" d="M312.124 133.105L299.334 131.335L299.429 130.644L312.22 132.414L312.124 133.105Z" fill="#414042"/>
<path fill-rule="evenodd" clip-rule="evenodd" d="M308.01 136.267L297.517 134.699L297.62 134.008L308.113 135.577L308.01 136.267Z" fill="#414042"/>
<path fill-rule="evenodd" clip-rule="evenodd" d="M95.7954 240.711L86.456 230.079L86.9807 229.618L96.3201 240.25L95.7954 240.711Z" fill="#414042"/>
<path fill-rule="evenodd" clip-rule="evenodd" d="M45.2686 222.183L38.9722 209.509L39.5976 209.198L45.894 221.872L45.2686 222.183Z" fill="#414042"/>
<path opacity="0.46" d="M184.575 52.3276C184.878 52.4896 185.172 52.6664 185.459 52.8431C185.072 53.4662 184.708 54.0913 184.367 54.7035C182.154 53.49 179.783 52.7089 177.375 52.3396C177.724 51.5545 178.105 50.817 178.513 50.1279C180.599 50.5443 182.651 51.2678 184.575 52.3276Z" fill="#414042"/>
<path opacity="0.46" d="M193.859 62.5989C193.638 62.7081 193.416 62.8247 193.194 62.9488C192.661 61.3533 191.717 59.8884 190.367 58.7429C190.856 58.4158 191.369 58.0832 191.91 57.7682C192.568 58.6183 193.066 59.5688 193.402 60.5724C193.624 61.2263 193.776 61.9041 193.859 62.5989Z" fill="#414042"/>
<path d="M72.6676 238.012C72.6676 238.012 74.5127 233.793 75.2297 234.278C75.9472 234.763 77.5192 235.968 76.6871 236.495C75.8544 237.022 73.5551 238.607 73.5551 238.607L72.6676 238.012Z" fill="#677CB1"/>
<path d="M25.7693 214.118C25.7693 214.118 28.1932 210.204 28.8344 210.786C29.4762 211.367 30.8616 212.782 29.9625 213.186C29.0638 213.59 26.5631 214.833 26.5631 214.833L25.7693 214.118Z" fill="#677CB1"/>
</svg>
