<svg width="215" height="41" viewBox="0 0 215 41" fill="none" xmlns="http://www.w3.org/2000/svg">
<path d="M86.8583 36.8725L7.14376 40.7288C1.51944 41.0043 -0.897788 33.2658 1.74414 25.9128L2.77949 23.0312C5.42142 15.6782 13.124 9.49675 18.7513 9.22121L96.5086 5.365C102.136 5.08946 106.546 10.8242 103.891 18.1772L102.851 21.0587C100.195 28.4117 92.4826 36.597 86.8583 36.8725Z" fill="url(#paint0_linear)"/>
<path d="M85.8583 34.8725L7.14376 38.7288C1.51944 39.0043 -0.897788 33.2658 1.74414 25.9128L2.77949 23.0312C5.42142 15.6782 12.124 9.49675 17.7513 9.22121L96.5086 5.365C102.136 5.08946 104.546 10.8242 101.891 18.1772L100.851 21.0587C98.1952 28.4117 91.4826 34.597 85.8583 34.8725Z" fill="#FFC6C2"/>
<path d="M197.179 31.5166L117.465 35.3728C111.841 35.6484 108.436 29.9098 111.092 22.5568L112.134 19.6753C114.79 12.3223 121.505 4.14086 127.132 3.86532L205.889 0.0091056C211.517 -0.266445 215.916 7.4682 213.246 14.8212L212.199 17.7028C209.529 25.0557 202.804 31.2411 197.179 31.5166Z" fill="url(#paint1_linear)"/>
<path d="M195.178 29.5171L116.464 33.3732C110.84 33.6488 108.435 27.9102 111.091 20.5573L112.133 17.6757C114.789 10.3227 121.504 4.14128 127.131 3.86574L205.888 0.00952847C211.516 -0.266022 213.915 5.46862 211.245 12.8216L210.198 15.7032C207.528 23.0562 200.803 29.2415 195.178 29.5171Z" fill="#CCEBE6"/>
<defs>
<linearGradient id="paint0_linear" x1="38" y1="38.5" x2="103.007" y2="5.01428" gradientUnits="userSpaceOnUse">
<stop offset="0.0780643" stop-color="#FFEEEC"/>
<stop offset="0.634602" stop-color="#FFEEEC"/>
<stop offset="0.69143" stop-color="#F0DBD8"/>
<stop offset="0.745722" stop-color="#FFEEEC"/>
<stop offset="0.947508" stop-color="#FFEEEC"/>
<stop offset="1" stop-color="#F2DEDB"/>
</linearGradient>
<linearGradient id="paint1_linear" x1="135" y1="9.5" x2="211" y2="8.5" gradientUnits="userSpaceOnUse">
<stop offset="0.0780643" stop-color="#E1FFFA"/>
<stop offset="0.766682" stop-color="#DFFFFA"/>
<stop offset="0.862169" stop-color="#CAEEE8"/>
<stop offset="0.916371" stop-color="#D8F7F2"/>
<stop offset="1" stop-color="#E1FFFA"/>
</linearGradient>
</defs>
</svg>
