<svg width="341" height="446" viewBox="0 0 341 446" fill="none" xmlns="http://www.w3.org/2000/svg">
<g style="mix-blend-mode:multiply" filter="url(#filter0_f)">
<path d="M94.8583 433.872L15.1438 437.729C9.51944 438.004 7.10221 430.266 9.74414 422.913L10.7795 420.031C13.4214 412.678 21.124 406.497 26.7513 406.221L104.509 402.365C110.136 402.089 114.546 407.824 111.891 415.177L110.851 418.059C108.195 425.412 100.483 433.597 94.8583 433.872Z" fill="black" fill-opacity="0.05"/>
</g>
<g style="mix-blend-mode:multiply" filter="url(#filter1_f)">
<path d="M193.858 430.872L128.144 434.729C122.519 435.004 120.102 427.266 122.744 419.913L123.779 417.031C126.421 409.678 134.124 403.497 139.751 403.221L203.509 399.365C209.136 399.089 213.546 404.824 210.891 412.177L209.851 415.059C207.195 422.412 199.483 430.597 193.858 430.872Z" fill="black" fill-opacity="0.05"/>
</g>
<path d="M87.8583 423.872L8.14376 427.729C2.51944 428.004 0.102212 420.266 2.74414 412.913L3.77949 410.031C6.42142 402.678 14.124 396.497 19.7513 396.221L97.5086 392.365C103.136 392.089 107.546 397.824 104.891 405.177L103.851 408.059C101.195 415.412 93.4826 423.597 87.8583 423.872Z" fill="url(#paint0_linear)"/>
<path d="M86.8583 421.872L8.14376 425.729C2.51944 426.004 0.102212 420.266 2.74414 412.913L3.77949 410.031C6.42142 402.678 13.124 396.497 18.7513 396.221L97.5086 392.365C103.136 392.089 105.546 397.824 102.891 405.177L101.851 408.059C99.1952 415.412 92.4826 421.597 86.8583 421.872Z" fill="#FFC6C2"/>
<path d="M198.179 418.517L118.465 422.373C112.841 422.648 109.436 416.91 112.092 409.557L113.134 406.675C115.79 399.322 122.505 391.141 128.132 390.865L206.889 387.009C212.517 386.734 216.916 394.468 214.246 401.821L213.199 404.703C210.529 412.056 203.804 418.241 198.179 418.517Z" fill="url(#paint1_linear)"/>
<path d="M196.178 416.517L117.464 420.373C111.84 420.649 109.435 414.91 112.091 407.557L113.133 404.676C115.789 397.323 122.504 391.141 128.131 390.866L206.888 387.01C212.516 386.734 214.915 392.469 212.245 399.822L211.198 402.703C208.528 410.056 201.803 416.242 196.178 416.517Z" fill="#CCEBE6"/>
<path d="M188.672 312.512L94.9859 317.09C92.5726 317.208 91.5349 314.751 92.6675 311.605L93.1115 310.372C94.2441 307.226 97.1202 304.579 99.5343 304.461L193.249 299.883C195.663 299.765 196.695 302.222 195.555 305.367L195.108 306.601C193.967 309.746 191.085 312.394 188.672 312.512Z" fill="#CCEBE6"/>
<path d="M155.326 337.116L86.5622 340.477C84.1503 340.595 83.1127 338.142 84.2463 334.993L84.6903 333.76C85.8229 330.614 88.6968 327.969 91.1095 327.851L159.894 324.489C162.307 324.371 163.34 326.825 162.202 329.971L161.755 331.204C160.616 334.353 157.738 336.998 155.326 337.116Z" fill="#CCEBE6"/>
<path d="M146.862 360.507L78.1376 363.869C75.7271 363.987 74.6916 361.53 75.8243 358.385L76.2682 357.151C77.4008 354.006 80.2747 351.358 82.686 351.24L151.431 347.878C153.843 347.76 154.874 350.217 153.735 353.363L153.289 354.596C152.15 357.741 149.273 360.389 146.862 360.507Z" fill="#CCEBE6"/>
<path fill-rule="evenodd" clip-rule="evenodd" d="M207.277 288.286L95.5312 293.73L96.6209 290.702L208.375 285.258L207.277 288.286Z" fill="#CCEBE6"/>
<path fill-rule="evenodd" clip-rule="evenodd" d="M177.277 373.286L65.5312 378.73L66.6209 375.702L178.375 370.258L177.277 373.286Z" fill="#CCEBE6"/>
<path fill-rule="evenodd" clip-rule="evenodd" d="M238.699 201.62L126.717 207.064L127.807 204.033L239.798 198.589L238.699 201.62Z" fill="#CCEBE6"/>
<path d="M119.921 263.001L107.074 263.628C104.804 263.739 103.826 261.434 104.888 258.48L110.903 241.759C111.966 238.805 114.668 236.321 116.94 236.21L129.795 235.584C132.066 235.473 133.045 237.778 131.981 240.732L125.957 257.453C124.893 260.406 122.19 262.891 119.921 263.001Z" fill="#FFC6C2"/>
<path d="M152.504 261.412L139.658 262.038C137.388 262.149 136.411 259.844 137.476 256.89L143.504 240.169C144.569 237.216 147.274 234.731 149.545 234.621L162.4 233.994C164.672 233.883 165.649 236.188 164.582 239.142L158.545 255.863C157.479 258.817 154.774 261.301 152.504 261.412Z" fill="#FFC6C2"/>
<path d="M185.088 259.823L172.241 260.449C169.971 260.56 168.996 258.255 170.064 255.302L176.105 238.58C177.173 235.627 179.879 233.142 182.15 233.032L195.006 232.405C197.277 232.294 198.252 234.599 197.183 237.553L191.133 254.274C190.064 257.228 187.357 259.712 185.088 259.823Z" fill="#FFC6C2"/>
<path d="M217.673 258.233L204.826 258.859C202.557 258.97 201.584 256.665 202.653 253.712L208.708 236.991C209.778 234.037 212.486 231.553 214.758 231.442L227.613 230.815C229.884 230.705 230.857 233.009 229.786 235.963L223.722 252.684C222.651 255.638 219.943 258.122 217.673 258.233Z" fill="#FFC6C2"/>
<path d="M246.197 178.285L136.108 183.633C129.959 183.932 127.299 177.711 130.165 169.739L183.564 21.2322C186.431 13.2602 193.76 6.55723 199.935 6.2585L310.5 0.909743C316.675 0.610994 319.337 6.82961 316.445 14.8016L262.568 163.308C259.676 171.28 252.346 177.986 246.197 178.285Z" stroke="#AF5253" stroke-opacity="0.4"/>
<g style="mix-blend-mode:multiply" filter="url(#filter2_f)">
<path d="M239.185 221.385L126.096 226.734C119.947 227.033 117.287 220.811 120.153 212.839L173.553 61.3328C176.419 53.3608 183.748 46.6578 189.924 46.3591L301.488 41.0103C307.663 40.7116 312.326 46.9302 309.433 54.9022L255.556 206.409C252.664 214.381 245.334 221.087 239.185 221.385Z" fill="black" fill-opacity="0.1"/>
</g>
<path d="M199.185 201.385L86.096 206.734C79.9473 207.033 77.2869 200.811 80.1534 192.839L133.553 41.3328C136.419 33.3608 143.748 26.6578 149.924 26.3591L261.488 21.0103C267.663 20.7116 272.326 26.9302 269.433 34.9022L215.556 186.409C212.664 194.381 205.334 201.087 199.185 201.385Z" fill="url(#paint2_linear)"/>
<path d="M196.185 198.385L86.096 203.734C79.9473 204.033 77.2869 197.811 80.1534 189.839L133.553 41.3328C136.419 33.3608 143.748 26.6578 149.924 26.3591L260.488 21.0103C266.663 20.7116 269.326 26.9302 266.433 34.9022L212.556 183.409C209.664 191.381 202.334 198.087 196.185 198.385Z" fill="url(#paint3_linear)"/>
<g style="mix-blend-mode:overlay" filter="url(#filter3_f)">
<path d="M186.743 74.0363C176.71 74.5222 164.787 85.4259 160.108 98.3991C157.058 106.856 158.93 151.053 158.93 151.053C158.93 151.053 193.893 103.639 196.424 96.6395C201.115 83.6663 196.783 73.5502 186.743 74.0363ZM175.099 106.28C169.582 106.547 168.255 101.137 170.045 96.1764C172.423 89.5894 178.557 85.0068 182.856 84.7986C186.803 84.6074 188.513 90.2384 186.658 95.3715C185.041 99.8479 180.623 106.012 175.099 106.28Z" fill="black" fill-opacity="0.2"/>
</g>
<path d="M177.448 186.012L108.219 189.374C105.79 189.492 104.741 187.035 105.874 183.889L106.319 182.656C107.452 179.511 110.341 176.863 112.77 176.745L182.02 173.383C184.449 173.265 185.494 175.722 184.355 178.867L183.908 180.101C182.769 183.246 179.877 185.894 177.448 186.012Z" stroke="#AF5253" stroke-opacity="0.4"/>
<g style="mix-blend-mode:overlay" filter="url(#filter4_f)">
<path d="M167.448 186.012L98.219 189.374C95.7905 189.492 94.7412 187.035 95.8744 183.889L96.3186 182.656C97.4519 179.511 100.341 176.863 102.77 176.745L172.02 173.383C174.449 173.265 175.494 175.722 174.355 178.867L173.908 180.101C172.769 183.246 169.877 185.894 167.448 186.012Z" fill="black" fill-opacity="0.3"/>
</g>
<path d="M147.448 176.012L78.219 179.374C75.7905 179.492 74.7412 177.035 75.8744 173.889L76.3186 172.656C77.4519 169.511 80.3405 166.863 82.7698 166.745L152.02 163.383C154.449 163.265 155.494 165.722 154.355 168.867L153.908 170.101C152.769 173.246 149.877 175.894 147.448 176.012Z" fill="#FFC6C2"/>
<g filter="url(#filter5_i)">
<path d="M163.002 43.9997C152.969 44.4856 139.787 57.4255 135.108 70.3987C132.058 78.8554 133.93 124.052 133.93 124.052C133.93 124.052 170.893 74.639 173.424 67.6391C178.115 54.6659 173.042 43.5135 163.002 43.9997ZM152.099 77.2797C146.582 77.5471 145.255 72.137 147.045 67.176C149.423 60.589 155.557 56.0064 159.856 55.7982C163.803 55.607 165.513 61.238 163.658 66.3711C162.041 70.8475 157.623 77.012 152.099 77.2797Z" fill="#FAE6E4"/>
</g>
<path d="M161.743 44.0363C151.71 44.5222 139.787 55.4259 135.108 68.3991C132.058 76.8558 133.93 121.053 133.93 121.053C133.93 121.053 168.893 73.6394 171.424 66.6395C176.115 53.6663 171.783 43.5502 161.743 44.0363ZM150.099 76.2801C144.582 76.5475 143.255 71.1374 145.045 66.1764C147.423 59.5894 153.557 55.0068 157.856 54.7986C161.803 54.6074 163.513 60.2384 161.658 65.3715C160.041 69.8479 155.623 76.0124 150.099 76.2801Z" fill="url(#paint4_linear)"/>
<defs>
<filter id="filter0_f" x="0.673828" y="394.355" width="120.01" height="51.3804" filterUnits="userSpaceOnUse" color-interpolation-filters="sRGB">
<feFlood flood-opacity="0" result="BackgroundImageFix"/>
<feBlend mode="normal" in="SourceGraphic" in2="BackgroundImageFix" result="shape"/>
<feGaussianBlur stdDeviation="4" result="effect1_foregroundBlur"/>
</filter>
<filter id="filter1_f" x="113.674" y="391.355" width="106.01" height="51.3804" filterUnits="userSpaceOnUse" color-interpolation-filters="sRGB">
<feFlood flood-opacity="0" result="BackgroundImageFix"/>
<feBlend mode="normal" in="SourceGraphic" in2="BackgroundImageFix" result="shape"/>
<feGaussianBlur stdDeviation="4" result="effect1_foregroundBlur"/>
</filter>
<filter id="filter2_f" x="89" y="11" width="251.312" height="245.744" filterUnits="userSpaceOnUse" color-interpolation-filters="sRGB">
<feFlood flood-opacity="0" result="BackgroundImageFix"/>
<feBlend mode="normal" in="SourceGraphic" in2="BackgroundImageFix" result="shape"/>
<feGaussianBlur stdDeviation="15" result="effect1_foregroundBlur"/>
</filter>
<filter id="filter3_f" x="153.361" y="69.0195" width="49.9544" height="87.033" filterUnits="userSpaceOnUse" color-interpolation-filters="sRGB">
<feFlood flood-opacity="0" result="BackgroundImageFix"/>
<feBlend mode="normal" in="SourceGraphic" in2="BackgroundImageFix" result="shape"/>
<feGaussianBlur stdDeviation="2.5" result="effect1_foregroundBlur"/>
</filter>
<filter id="filter4_f" x="90.418" y="168.379" width="89.398" height="25.999" filterUnits="userSpaceOnUse" color-interpolation-filters="sRGB">
<feFlood flood-opacity="0" result="BackgroundImageFix"/>
<feBlend mode="normal" in="SourceGraphic" in2="BackgroundImageFix" result="shape"/>
<feGaussianBlur stdDeviation="2.5" result="effect1_foregroundBlur"/>
</filter>
<filter id="filter5_i" x="133.361" y="43.9844" width="41.8259" height="84.0678" filterUnits="userSpaceOnUse" color-interpolation-filters="sRGB">
<feFlood flood-opacity="0" result="BackgroundImageFix"/>
<feBlend mode="normal" in="SourceGraphic" in2="BackgroundImageFix" result="shape"/>
<feColorMatrix in="SourceAlpha" type="matrix" values="0 0 0 0 0 0 0 0 0 0 0 0 0 0 0 0 0 0 127 0" result="hardAlpha"/>
<feOffset dy="4"/>
<feGaussianBlur stdDeviation="4"/>
<feComposite in2="hardAlpha" operator="arithmetic" k2="-1" k3="1"/>
<feColorMatrix type="matrix" values="0 0 0 0 0.708333 0 0 0 0 0.286285 0 0 0 0 0.286285 0 0 0 0.25 0"/>
<feBlend mode="normal" in2="shape" result="effect1_innerShadow"/>
</filter>
<linearGradient id="paint0_linear" x1="39" y1="425.5" x2="104.007" y2="392.014" gradientUnits="userSpaceOnUse">
<stop offset="0.0780643" stop-color="#FFEEEC"/>
<stop offset="0.634602" stop-color="#FFEEEC"/>
<stop offset="0.69143" stop-color="#F0DBD8"/>
<stop offset="0.745722" stop-color="#FFEEEC"/>
<stop offset="0.947508" stop-color="#FFEEEC"/>
<stop offset="1" stop-color="#F2DEDB"/>
</linearGradient>
<linearGradient id="paint1_linear" x1="136" y1="396.5" x2="212" y2="395.5" gradientUnits="userSpaceOnUse">
<stop offset="0.0780643" stop-color="#E1FFFA"/>
<stop offset="0.766682" stop-color="#DFFFFA"/>
<stop offset="0.862169" stop-color="#CAEEE8"/>
<stop offset="0.916371" stop-color="#D8F7F2"/>
<stop offset="1" stop-color="#E1FFFA"/>
</linearGradient>
<linearGradient id="paint2_linear" x1="174.656" y1="21" x2="174.656" y2="206.744" gradientUnits="userSpaceOnUse">
<stop stop-color="#C5E7E1"/>
<stop offset="0.0780643" stop-color="#E1FFFA"/>
<stop offset="0.869474" stop-color="#DFFFFA"/>
<stop offset="0.926004" stop-color="#B5DBD5"/>
<stop offset="1" stop-color="#E1FFFA"/>
</linearGradient>
<linearGradient id="paint3_linear" x1="173.301" y1="21" x2="173.301" y2="203.744" gradientUnits="userSpaceOnUse">
<stop stop-color="#CCEBE6"/>
<stop offset="1" stop-color="#A9D2CE"/>
</linearGradient>
<linearGradient id="paint4_linear" x1="153.339" y1="44.0195" x2="155.5" y2="146.5" gradientUnits="userSpaceOnUse">
<stop offset="0.270124" stop-color="#FFC6C2"/>
<stop offset="1" stop-color="#E39B9D"/>
</linearGradient>
</defs>
</svg>
