<svg width="254" height="379" viewBox="0 0 254 379" fill="none" xmlns="http://www.w3.org/2000/svg">
<path d="M123.672 312.512L29.9859 317.09C27.5726 317.208 26.5349 314.751 27.6675 311.605L28.1115 310.372C29.2441 307.226 32.1202 304.579 34.5343 304.461L128.249 299.883C130.663 299.765 131.695 302.222 130.555 305.367L130.108 306.601C128.967 309.746 126.085 312.394 123.672 312.512Z" fill="#CCEBE6"/>
<path d="M90.3257 337.116L21.5622 340.477C19.1503 340.595 18.1127 338.142 19.2463 334.993L19.6903 333.76C20.8229 330.614 23.6968 327.969 26.1095 327.851L94.8943 324.489C97.3072 324.371 98.3404 326.825 97.2018 329.971L96.7555 331.204C95.6158 334.353 92.7379 336.998 90.3257 337.116Z" fill="#CCEBE6"/>
<path d="M81.8618 360.507L13.1376 363.869C10.7271 363.987 9.69164 361.53 10.8243 358.385L11.2682 357.151C12.4008 354.006 15.2747 351.358 17.686 351.24L86.4314 347.878C88.8429 347.76 89.8739 350.217 88.7353 353.363L88.289 354.596C87.1504 357.741 84.2726 360.389 81.8618 360.507Z" fill="#CCEBE6"/>
<path fill-rule="evenodd" clip-rule="evenodd" d="M142.277 288.286L30.5312 293.73L31.6209 290.702L143.375 285.258L142.277 288.286Z" fill="#CCEBE6"/>
<path fill-rule="evenodd" clip-rule="evenodd" d="M112.277 373.286L0.53125 378.73L1.62087 375.702L113.375 370.258L112.277 373.286Z" fill="#CCEBE6"/>
<path fill-rule="evenodd" clip-rule="evenodd" d="M173.699 201.62L61.7168 207.064L62.8074 204.033L174.798 198.589L173.699 201.62Z" fill="#CCEBE6"/>
<path d="M54.9205 263.001L42.0741 263.628C39.8041 263.739 38.8256 261.434 39.8881 258.48L45.9033 241.759C46.9658 238.805 49.6684 236.321 51.9399 236.21L64.7949 235.584C67.0664 235.473 68.0449 237.778 66.9809 240.732L60.9571 257.453C59.893 260.406 57.1905 262.891 54.9205 263.001Z" fill="#FFC6C2"/>
<path d="M87.504 261.412L74.6576 262.038C72.3876 262.149 71.411 259.844 72.4758 256.89L78.5043 240.169C79.5692 237.216 82.2737 234.731 84.5452 234.621L97.4002 233.994C99.6717 233.883 100.649 236.188 99.5821 239.142L93.545 255.863C92.4786 258.817 89.774 261.301 87.504 261.412Z" fill="#FFC6C2"/>
<path d="M120.088 259.823L107.241 260.449C104.971 260.56 103.996 258.255 105.064 255.302L111.105 238.58C112.173 235.627 114.879 233.142 117.15 233.032L130.006 232.405C132.277 232.294 133.252 234.599 132.183 237.553L126.133 254.274C125.064 257.228 122.357 259.712 120.088 259.823Z" fill="#FFC6C2"/>
<path d="M152.673 258.233L139.826 258.859C137.557 258.97 136.584 256.665 137.653 253.712L143.708 236.991C144.778 234.037 147.486 231.553 149.758 231.442L162.613 230.815C164.884 230.705 165.857 233.009 164.786 235.963L158.722 252.684C157.651 255.638 154.943 258.122 152.673 258.233Z" fill="#FFC6C2"/>
<path d="M181.197 178.285L71.1077 183.633C64.959 183.932 62.2986 177.711 65.1651 169.739L118.564 21.2322C121.431 13.2602 128.76 6.55723 134.935 6.2585L245.5 0.909743C251.675 0.610994 254.337 6.82961 251.445 14.8016L197.568 163.308C194.676 171.28 187.346 177.986 181.197 178.285Z" stroke="#AF5253" stroke-opacity="0.4"/>
</svg>
